<svg preserveAspectRatio="none" overflow="visible" style="display: block;" width="24.3209" height="41.69" viewBox="0 0 24.3209 41.69" fill="none" xmlns="http://www.w3.org/2000/svg">
<g id="Layer_x0020_1">
<path id="Vector" fill-rule="evenodd" clip-rule="evenodd" d="M3.82475 34.2505C4.25173 34.2758 5.49714 35.2308 5.65088 35.2909C5.61611 34.9413 5.56498 34.9942 5.31433 34.8497C4.92372 34.6246 4.26182 34.2553 3.82475 34.2505H3.82475ZM13.0149 11.9783C13.0152 11.9623 13.0384 12.1641 13.4577 12.1154C13.6496 12.093 13.7219 12.0263 13.8066 11.9314L13.0149 11.9783H13.0149ZM6.43114 4.89106C6.66998 4.55755 5.98739 4.16164 5.64388 3.8155C5.43114 3.60113 4.87271 2.97219 4.62992 2.87339C4.08011 3.11818 4.78953 3.51939 5.24468 3.97454C5.43993 4.16979 5.59057 4.3199 5.78556 4.51505C5.94995 4.67958 6.18041 5.0574 6.43115 4.89106H6.43114ZM18.7887 2.96954C18.4515 2.73367 18.2676 3.10422 17.6725 3.69857C17.5288 3.84205 16.6618 4.58424 16.7328 4.80557C16.887 5.28655 17.4302 4.55122 17.8577 4.1243C18.0422 3.94013 18.1831 3.79859 18.3685 3.61387C18.5595 3.42352 18.7945 3.30287 18.7887 2.96955L18.7887 2.96954ZM1.86733 10.1848C2.58015 10.1848 3.61393 10.2233 4.29527 10.1478L4.31857 9.78244C4.04399 9.70866 1.86574 9.71067 1.74405 9.74402C1.41261 9.83487 1.50436 10.1848 1.86734 10.1848H1.86733ZM18.9168 10.134C19.4817 10.24 21.0378 10.2142 21.6505 10.1519C21.7089 9.88291 21.6468 9.73458 21.3256 9.73458H19.2255C18.9091 9.73458 18.8701 9.89734 18.9168 10.1341V10.134ZM11.3865 1.34472C11.3865 1.85343 11.3141 2.4631 11.4696 2.78552C11.9032 2.79775 11.8392 2.78635 11.8368 1.94563C11.8361 1.71426 11.886 0.261906 11.7939 0.118354C11.6903 -0.0430755 11.4705 -0.0603011 11.3971 0.199504C11.3398 0.402576 11.3865 1.12318 11.3865 1.34472ZM4.97145 37.0804C5.20298 37.0142 5.34801 37.1045 5.62177 36.9462C5.81716 36.8331 5.92874 36.7293 6.0537 36.533C5.8159 36.8509 5.5716 37.0349 4.97145 37.0804ZM6.64091 36.3472C6.58131 36.2162 6.31545 36.0852 6.14612 36.0382L6.64091 36.3472ZM5.66932 37.9688C5.85777 37.9979 6.18152 38.0617 6.32388 38.0006C6.16318 37.9416 5.66829 38.0055 5.04939 37.7821C5.21627 37.8484 5.47714 37.9392 5.66932 37.9688ZM6.01591 38.2978C5.81766 38.5664 5.59914 39.1822 5.4932 39.5673L6.01591 38.2978ZM4.09855 38.0363C4.36327 37.4212 3.64499 36.9624 5.08953 36.1117C5.40143 35.928 5.49369 35.966 5.75998 35.8591C5.28586 35.8672 4.76128 36.2606 4.49237 36.5418C4.13394 36.9167 4.06641 37.38 4.09855 38.0364V38.0363ZM16.6574 37.3779C16.8367 37.2393 17.0107 37.0788 17.1761 37.0335C17.0843 37.1782 16.8289 37.2998 16.6574 37.3779ZM17.4529 37.0739C17.6171 37.5542 17.5184 37.6532 17.8806 38.3855C17.9547 38.5353 18.3564 39.3472 18.4704 39.4102C18.2532 39.218 17.4505 37.5777 17.4757 36.8988C17.2843 37.0496 17.3323 37.0691 17.1412 36.9601C17.3205 36.8728 17.4369 36.8752 17.4696 36.631C16.8213 37.0154 16.1871 37.4304 15.544 37.865C14.9156 38.2896 14.2879 38.6566 13.6658 39.0549C15.0211 38.4885 15.9623 38.0302 17.1809 37.2227L17.4529 37.0739H17.4529ZM18.6815 35.2956C19.1663 35.0241 19.8719 34.4526 20.5224 34.2414C20.2226 34.2468 19.7389 34.4831 19.4546 34.6248C18.8492 34.9265 18.6738 34.9343 18.6815 35.2956ZM13.2548 14.0555C13.6411 13.9641 14.0254 13.5323 14.2012 13.4609C13.9673 13.6147 13.5622 13.9268 13.2548 14.0555ZM13.4213 11.3435C13.7549 11.3435 14.0253 11.6392 14.0253 12.004C14.0253 12.3688 13.7549 12.6645 13.4213 12.6645C13.0877 12.6645 12.8173 12.3688 12.8173 12.004C12.8173 11.6392 13.0877 11.3435 13.4213 11.3435ZM12.6356 11.5477C13.0364 11.3883 12.4716 11.3032 13.3701 11.2344L13.0348 11.2601C13.0354 11.2592 12.9804 11.0991 13.4572 11.0602C13.6563 11.0439 13.8367 11.0653 14.0051 11.1337C14.2886 11.2489 14.4852 11.469 14.5869 11.7627C14.8081 12.4015 14.5806 13.1566 14.3241 13.7086C14.6404 13.3241 14.8449 12.188 14.5556 11.6552C13.9773 10.59 13.0702 11.1772 12.7976 11.2622L12.6359 11.0019L12.6356 11.5477L12.6356 11.5477ZM14.8395 15.7546C15.137 15.6028 15.0993 14.9416 15.017 14.6326C15.0119 14.6136 14.9739 14.5015 14.9697 14.494C14.8582 14.2923 14.9854 14.4507 14.8395 14.3537C14.5312 14.6043 14.557 15.563 14.8395 15.7546ZM11.8897 16.1273C11.8897 16.6231 11.8494 16.6787 12.2231 16.6341C12.2846 16.1995 12.318 15.763 11.9892 15.6451C11.9237 15.7893 11.8897 15.9168 11.8897 16.1273ZM9.45833 9.30635C9.69873 8.66142 9.99041 9.24495 9.67817 7.70271L9.46767 8.13077C9.45317 7.11846 9.7839 8.03327 9.34102 6.19478C9.23724 6.28244 9.32654 6.18158 9.23574 6.30529C9.20546 6.34654 9.16359 6.42394 9.14355 6.46653C9.09817 6.56297 9.07006 6.6556 9.02668 6.74217L8.69288 5.546C8.69935 5.97598 9.15842 8.04417 9.29037 8.81672C9.3248 9.01825 9.33565 9.15768 9.45833 9.30635V9.30635ZM18.9266 38.8414C19.0054 38.994 19.0993 39.2614 19.1759 39.4823C19.2792 39.7801 19.2656 40.0311 19.584 40.0367C19.8002 39.6973 19.2577 38.6828 19.2433 38.2332C19.3132 38.4951 19.4079 38.7766 19.4885 39.0493C19.5339 39.2029 19.5534 39.3123 19.6011 39.478C19.6752 39.7354 19.6163 39.732 19.8842 39.7304C20.0375 39.5206 19.9515 39.3411 19.9258 39.0766C21.3677 38.7256 24.0369 37.1058 24.2997 35.5083C24.4973 34.3071 23.2766 33.8374 22.201 33.6988C20.7434 33.511 19.9019 33.8366 18.678 34.1552L18.819 31.7267C19.0272 31.6304 19.1932 31.6333 19.288 31.401C19.1986 31.4547 19.195 31.4802 19.0752 31.5438C18.902 31.6357 18.9984 31.6109 18.8314 31.6107C18.8314 30.665 19.2066 29.7453 17.842 29.7629C17.45 29.768 17.0094 29.9083 16.7314 30.0989C16.3705 30.3464 16.3738 30.7364 16.4495 31.2208C16.699 32.8173 17.0402 34.6505 17.4008 36.1857C16.3013 37.1342 13.9368 38.6594 12.5713 39.277C11.9861 39.5417 9.79078 39.704 9.07395 39.6323C8.39338 39.5642 8.05625 39.4266 7.46021 39.2518C6.54003 38.9819 6.58604 39.234 5.90751 39.4264C5.94644 39.1403 6.25302 38.7121 6.37842 38.4265C6.48166 38.1913 6.72961 37.5628 6.7654 37.2971C6.7808 37.7038 6.16695 38.8996 6.0612 39.1489C6.27225 39.057 6.60708 38.8435 7.02999 38.9019C8.22745 39.0674 8.42478 39.5775 10.252 39.4066C10.1383 39.2487 9.98625 39.1684 9.81596 39.0623C9.32209 38.7547 7.07777 37.1826 6.82948 37.1586C6.82642 37.1583 6.8134 37.1614 6.80578 37.1593L6.78402 36.7046C6.94642 36.9135 7.16972 37.0039 7.40093 37.1513L7.60685 37.3051C7.61326 37.3108 7.62805 37.3241 7.63696 37.3352C7.35216 37.2622 7.14064 36.9752 6.8267 36.8511C6.87735 37.1708 7.42374 37.4181 7.68926 37.5857C8.13052 37.8642 10.327 39.307 10.667 39.3534C10.4922 39.1139 9.55764 38.5965 9.18433 38.3716C8.96148 38.2373 7.89223 37.6352 7.71127 37.4408C7.62075 37.3435 7.69277 37.4429 7.63696 37.3352C7.97294 37.3998 9.9199 38.6599 10.4442 38.9735C10.8231 39.2001 11.0296 39.4262 11.4813 39.2025L6.89144 36.2244C6.90939 35.7384 7.29583 34.0445 7.383 33.1847C7.60721 30.9731 7.40315 28.7396 7.20369 26.5273C7.10947 25.4823 6.92592 24.3838 6.86935 23.3556C8.4898 23.2891 10.5356 22.4413 11.4248 21.6024C12.0118 21.0487 12.4702 20.5902 12.9349 19.9302C13.2851 19.4328 13.7739 18.4144 13.8795 17.6868C14.3686 17.8284 15.083 18.2088 15.6792 18.4091C17.6529 19.0721 19.6595 19.0914 19.8335 21.8963C19.98 24.2579 19.4513 26.5723 19.3526 28.9246C19.3224 29.6435 19.383 30.4031 19.3182 31.1196C19.3123 31.1844 19.3064 31.1959 19.3122 31.2691C19.3135 31.2853 19.3178 31.3041 19.3198 31.3186L19.3454 31.4173C19.3866 29.6924 19.4163 27.7928 19.6218 26.1516C19.7933 24.7815 20.0962 22.4296 19.7623 21.1093C19.1598 18.7271 16.5689 18.8034 14.6394 17.9539C14.483 17.885 14.3453 17.8165 14.1846 17.7481C13.9908 17.6656 13.8975 17.6682 13.8076 17.4007C13.701 17.0832 13.6253 16.5743 13.6068 16.2174C13.4388 16.2277 13.3549 16.3356 13.2288 16.481L13.6132 16.0413C14.0375 15.5417 14.3541 15.0562 14.5301 14.3565L14.5608 14.6381C14.5427 14.7295 14.5032 14.8124 14.4786 14.9257C14.3845 15.3585 14.4066 15.822 14.5312 16.257C14.8886 17.5039 15.6961 15.7779 15.1028 14.4789C14.8758 13.9819 15.0164 14.2455 15.1749 13.4009C15.3727 12.3476 15.3173 12.6159 15.0471 12.2966C15.1696 11.7594 15.1255 11.2564 15.1211 10.6716C14.5304 10.3771 12.876 10.179 12.1546 10.3106L12.1297 12.1643C12.1289 12.2572 12.1308 12.3541 12.1189 12.4399L11.9684 10.2909C11.3457 10.265 9.59437 10.2464 9.17563 10.6244C9.04254 10.4827 9.14589 10.6387 9.05133 10.44C8.73748 9.78048 8.47269 7.95825 8.40785 7.28604L8.69733 7.40838C8.48044 6.98889 8.3638 7.23942 8.36115 6.53228C9.04262 7.17174 8.86514 7.00712 9.06399 8.14289C9.11941 8.45952 9.17848 8.79913 9.24842 9.10532C9.38766 9.71492 9.17123 9.55546 9.16369 10.0284C10.3139 9.80326 10.2249 9.45833 12.2135 9.73575C13.3045 9.88795 14.1482 10.1227 15.0936 10.481C15.0471 9.35899 14.2243 8.42524 13.2121 8.02021C12.6575 7.79828 11.9866 7.75767 11.399 7.87803C10.5969 8.04229 10.4206 8.41696 9.91161 8.63548C9.86367 7.87966 9.6327 6.79168 9.40371 6.06199C9.22049 5.47817 9.00225 4.94107 8.67324 4.44925C8.59782 4.33649 8.43287 4.05601 8.36092 4.11805C8.14149 4.52601 8.28173 7.11205 8.34918 7.71637C8.44072 8.53645 8.58878 9.72206 8.97484 10.4645C9.17666 10.8526 8.92459 10.8701 9.05005 11.7627C9.1701 12.6169 9.15268 12.2046 9.01462 12.5183C8.89072 12.7998 9.16739 13.8164 9.30996 14.0853C9.53395 14.5079 9.5989 14.0969 9.76079 14.6008C9.85748 14.9017 9.90437 15.0307 10.0515 15.2688C10.2973 15.6667 10.6596 16.133 11.0144 16.3049C10.9308 16.3716 10.9537 16.3642 10.8794 16.2993L10.6342 16.1422C10.4854 17.5437 10.6402 17.5846 9.32674 18.0037C8.51897 18.2615 7.71596 18.5581 6.91424 18.8321C5.87247 19.1881 5.36008 19.2122 4.82812 19.9895C3.43086 22.0313 4.77125 25.9962 5.22058 28.0927C5.44066 29.1196 5.40472 30.0432 5.42474 31.1525C5.44222 32.1209 5.59508 33.1795 5.63681 34.147C4.27454 33.8637 3.85675 33.4838 2.13332 33.6994C-1.12991 34.1075 -0.150379 36.4962 1.76036 37.7476C2.13693 37.9943 2.55391 38.2684 2.99474 38.4927C3.3209 38.6587 4.18429 38.9723 4.40492 39.1424C4.38496 39.3548 4.31803 39.5839 4.44974 39.7475C4.77041 39.699 4.69405 39.4434 4.82294 38.968C4.88687 38.7323 4.97436 38.313 5.10334 38.1393C5.00939 38.7079 4.57175 39.4607 4.65669 40.0716C5.12388 40.0357 5.04734 39.6937 5.20738 39.2284C5.32754 38.8791 5.43681 38.4944 5.58379 38.2152C5.48345 38.8334 4.91265 39.5525 5.19469 39.8369L5.31866 39.9235C5.23105 40.0962 5.07532 40.1574 5.1659 40.3525C5.26145 40.5583 5.25045 40.3906 5.31362 40.5538C5.35114 40.6507 5.32446 40.721 5.3418 40.885C5.45911 40.9761 5.51313 40.9682 5.55973 41.0775C5.7318 41.481 5.40942 41.2676 5.99452 41.4C6.24122 41.4559 6.0614 41.4538 6.29 41.568C6.50596 41.6759 6.87509 41.6691 7.15272 41.6619C7.69849 41.6478 8.3763 41.6023 8.90753 41.564C9.54538 41.518 9.9296 41.4842 10.5076 41.2973C12.9131 40.5192 13.2503 41.4319 15.2008 41.5912C15.9263 41.6505 17.1933 41.7806 17.8888 41.5905L18.6313 41.3584L18.7056 41.0069C18.9161 40.9222 19.138 40.8331 18.8886 40.5483C19.2432 40.3749 19.3053 40.2201 18.964 40.0155C19.0244 39.8537 19.0893 39.8797 19.2022 39.7432L18.9266 38.8414V38.8414ZM10.4193 12.0523C10.5694 11.9634 10.9168 11.9613 11.0587 11.984C11.2124 12.0087 11.1322 12.0025 11.2143 12.0535C10.825 12.1427 10.8071 12.1432 10.4193 12.0523H10.4193ZM11.4575 10.9516L11.4383 11.5213C11.1528 11.3959 11.2639 11.3665 10.9127 11.2199C10.6452 11.1082 10.5416 11.1156 10.2362 11.1092C10.5675 10.9654 10.9722 11.1682 11.3219 11.2634L11.4575 10.9516Z" fill="#FAF5EA"/>
</g>
</svg>
