<svg xmlns="http://www.w3.org/2000/svg" width="1080" height="1920" viewBox="0 0 1080 1920">
  <defs>
    <linearGradient id="bg" x1="0" y1="0" x2="0" y2="1">
      <stop offset="0" stop-color="#2f9bc7"/>
      <stop offset="0.55" stop-color="#0a3145"/>
      <stop offset="1" stop-color="#15100a"/>
    </linearGradient>
    <radialGradient id="halo" cx="0.5" cy="0.32" r="0.62">
      <stop offset="0" stop-color="#ffffff" stop-opacity="0.18"/>
      <stop offset="1" stop-color="#ffffff" stop-opacity="0"/>
    </radialGradient>
    <linearGradient id="art" x1="0" y1="0" x2="0" y2="1">
      <stop offset="0" stop-color="#2f9bc7" stop-opacity="0.20"/>
      <stop offset="1" stop-color="#2f9bc7" stop-opacity="0.05"/>
    </linearGradient>
    <filter id="cardShadow" x="-20%" y="-20%" width="140%" height="140%">
      <feDropShadow dx="0" dy="14" stdDeviation="26" flood-color="#000000" flood-opacity="0.45"/>
    </filter>
  </defs>

  <!-- Background -->
  <rect width="1080" height="1920" fill="url(#bg)"/>
  <rect width="1080" height="1920" fill="url(#halo)"/>
  <g transform="translate(60,120) rotate(0)" opacity="0.06">
      <path d="M-26 0 H26 M0 -26 V26 M-16 -16 L16 16" stroke="#fffcf3" stroke-width="5" fill="none"/></g><g transform="translate(233,431) rotate(47)" opacity="0.06">
      <path d="M-26 0 H26 M0 -26 V26 M-16 -16 L16 16" stroke="#fffcf3" stroke-width="5" fill="none"/></g><g transform="translate(406,742) rotate(94)" opacity="0.06">
      <path d="M-26 0 H26 M0 -26 V26 M-16 -16 L16 16" stroke="#fffcf3" stroke-width="5" fill="none"/></g><g transform="translate(579,1053) rotate(141)" opacity="0.06">
      <path d="M-26 0 H26 M0 -26 V26 M-16 -16 L16 16" stroke="#fffcf3" stroke-width="5" fill="none"/></g><g transform="translate(752,1364) rotate(188)" opacity="0.06">
      <path d="M-26 0 H26 M0 -26 V26 M-16 -16 L16 16" stroke="#fffcf3" stroke-width="5" fill="none"/></g><g transform="translate(925,1675) rotate(235)" opacity="0.06">
      <path d="M-26 0 H26 M0 -26 V26 M-16 -16 L16 16" stroke="#fffcf3" stroke-width="5" fill="none"/></g><g transform="translate(18,66) rotate(282)" opacity="0.06">
      <path d="M-26 0 H26 M0 -26 V26 M-16 -16 L16 16" stroke="#fffcf3" stroke-width="5" fill="none"/></g><g transform="translate(191,377) rotate(329)" opacity="0.06">
      <path d="M-26 0 H26 M0 -26 V26 M-16 -16 L16 16" stroke="#fffcf3" stroke-width="5" fill="none"/></g><g transform="translate(364,688) rotate(16)" opacity="0.06">
      <path d="M-26 0 H26 M0 -26 V26 M-16 -16 L16 16" stroke="#fffcf3" stroke-width="5" fill="none"/></g><g transform="translate(537,999) rotate(63)" opacity="0.06">
      <path d="M-26 0 H26 M0 -26 V26 M-16 -16 L16 16" stroke="#fffcf3" stroke-width="5" fill="none"/></g><g transform="translate(710,1310) rotate(110)" opacity="0.06">
      <path d="M-26 0 H26 M0 -26 V26 M-16 -16 L16 16" stroke="#fffcf3" stroke-width="5" fill="none"/></g><g transform="translate(883,1621) rotate(157)" opacity="0.06">
      <path d="M-26 0 H26 M0 -26 V26 M-16 -16 L16 16" stroke="#fffcf3" stroke-width="5" fill="none"/></g><g transform="translate(1056,12) rotate(204)" opacity="0.06">
      <path d="M-26 0 H26 M0 -26 V26 M-16 -16 L16 16" stroke="#fffcf3" stroke-width="5" fill="none"/></g><g transform="translate(149,323) rotate(251)" opacity="0.06">
      <path d="M-26 0 H26 M0 -26 V26 M-16 -16 L16 16" stroke="#fffcf3" stroke-width="5" fill="none"/></g><g transform="translate(322,634) rotate(298)" opacity="0.06">
      <path d="M-26 0 H26 M0 -26 V26 M-16 -16 L16 16" stroke="#fffcf3" stroke-width="5" fill="none"/></g><g transform="translate(495,945) rotate(345)" opacity="0.06">
      <path d="M-26 0 H26 M0 -26 V26 M-16 -16 L16 16" stroke="#fffcf3" stroke-width="5" fill="none"/></g><g transform="translate(668,1256) rotate(32)" opacity="0.06">
      <path d="M-26 0 H26 M0 -26 V26 M-16 -16 L16 16" stroke="#fffcf3" stroke-width="5" fill="none"/></g><g transform="translate(841,1567) rotate(79)" opacity="0.06">
      <path d="M-26 0 H26 M0 -26 V26 M-16 -16 L16 16" stroke="#fffcf3" stroke-width="5" fill="none"/></g><g transform="translate(1014,1878) rotate(126)" opacity="0.06">
      <path d="M-26 0 H26 M0 -26 V26 M-16 -16 L16 16" stroke="#fffcf3" stroke-width="5" fill="none"/></g><g transform="translate(107,269) rotate(173)" opacity="0.06">
      <path d="M-26 0 H26 M0 -26 V26 M-16 -16 L16 16" stroke="#fffcf3" stroke-width="5" fill="none"/></g><g transform="translate(280,580) rotate(220)" opacity="0.06">
      <path d="M-26 0 H26 M0 -26 V26 M-16 -16 L16 16" stroke="#fffcf3" stroke-width="5" fill="none"/></g><g transform="translate(453,891) rotate(267)" opacity="0.06">
      <path d="M-26 0 H26 M0 -26 V26 M-16 -16 L16 16" stroke="#fffcf3" stroke-width="5" fill="none"/></g><g transform="translate(626,1202) rotate(314)" opacity="0.06">
      <path d="M-26 0 H26 M0 -26 V26 M-16 -16 L16 16" stroke="#fffcf3" stroke-width="5" fill="none"/></g><g transform="translate(799,1513) rotate(1)" opacity="0.06">
      <path d="M-26 0 H26 M0 -26 V26 M-16 -16 L16 16" stroke="#fffcf3" stroke-width="5" fill="none"/></g><g transform="translate(972,1824) rotate(48)" opacity="0.06">
      <path d="M-26 0 H26 M0 -26 V26 M-16 -16 L16 16" stroke="#fffcf3" stroke-width="5" fill="none"/></g><g transform="translate(65,215) rotate(95)" opacity="0.06">
      <path d="M-26 0 H26 M0 -26 V26 M-16 -16 L16 16" stroke="#fffcf3" stroke-width="5" fill="none"/></g>

  <!-- Header (top safe zone) -->
  <text x="540" y="150" text-anchor="middle" font-family="Georgia, serif" font-size="40" fill="#fffcf3" letter-spacing="6" font-style="italic">Ọ́nwá Ánọ̄ · The Fourth Month</text>
  <text x="540" y="206" text-anchor="middle" font-family="Arial, sans-serif" font-size="25" fill="#ffe9b0" letter-spacing="12" font-weight="800">FOUR ANO · FORM</text>

  <!-- Card body -->
  <g filter="url(#cardShadow)">
    <rect x="80" y="286" width="920" height="1348" rx="42" fill="#fffcf3"/>
    <rect x="92" y="298" width="896" height="1324" rx="32" fill="none" stroke="#2f9bc7" stroke-width="10"/>
    <rect x="106" y="312" width="868" height="1296" rx="24" fill="none" stroke="#d9b03a" stroke-width="2"/>
  </g>

  <!-- Top banner -->
  <rect x="126" y="336" width="828" height="118" rx="20" fill="#2f9bc7"/>
  <circle cx="190" cy="395" r="44" fill="#fffcf3"/>
  <g transform="translate(150,355) scale(0.4)"><ellipse cx="100" cy="108" rx="82" ry="64" fill="#2f9bc7"/>
        <path d="M100 46 L100 172" stroke="#fffcf3" stroke-width="6"/>
        <path d="M40 92 Q70 70 96 92 M104 92 Q130 70 160 92 M44 128 Q72 150 98 128 M102 128 Q130 150 158 128" stroke="#fffcf3" stroke-width="6" fill="none"/></g>
  <text x="256" y="382" font-family="Arial, sans-serif" font-size="26" fill="#ffffff" letter-spacing="3" font-weight="800">ÌZÙ 2 — CEREBRUM</text>
  <text x="256" y="420" font-family="Georgia, serif" font-size="25" fill="#ffffff" font-style="italic" opacity="0.92">Four Lobes of Awareness</text>
  <path d="M904 369 L930 395 L904 421 L878 395 Z" fill="#ffe9b0" stroke="#fffcf3" stroke-width="3"/>
    <path d="M878 395 L930 395 M904 369 L904 421" stroke="#fffcf3" stroke-width="2" opacity="0.7"/>

  <!-- Jersey day number -->
  <circle cx="930" cy="356" r="62" fill="#1a0f06"/>
  <circle cx="930" cy="356" r="62" fill="none" stroke="#d9b03a" stroke-width="5"/>
  <text x="930" y="378" text-anchor="middle" font-family="Arial, sans-serif" font-size="64" font-weight="900" fill="#fffcf3">6</text>

  <!-- Hero art window -->
  <rect x="126" y="482" width="828" height="426" rx="24" fill="url(#art)" stroke="#2f9bc7" stroke-width="3"/>
  <g transform="translate(390,545) scale(1.5)"><ellipse cx="100" cy="108" rx="82" ry="64" fill="#2f9bc7"/>
        <path d="M100 46 L100 172" stroke="#fffcf3" stroke-width="6"/>
        <path d="M40 92 Q70 70 96 92 M104 92 Q130 70 160 92 M44 128 Q72 150 98 128 M102 128 Q130 150 158 128" stroke="#fffcf3" stroke-width="6" fill="none"/></g>
  <!-- moon, top-left of art -->
  <circle cx="198" cy="552" r="44" fill="#3a4a5e"/><circle cx="198" cy="552" r="40" fill="#2b3340"/>
  <text x="198" y="626" text-anchor="middle" font-family="Arial, sans-serif" font-size="20" fill="#6b5c4a" font-weight="700">New</text>
  <!-- market chip, bottom-right of art -->
  <rect x="728" y="834" width="206" height="56" rx="28" fill="#66daff"/>
  <text x="831" y="872" text-anchor="middle" font-family="Arial, sans-serif" font-size="30" font-weight="800" fill="#003a52">Oriè</text>

  <!-- Name plate -->
  <text x="126" y="982" font-family="Arial, sans-serif" font-size="58" font-weight="900" fill="#1a0f06">Parietal lobe</text>
  <text x="126" y="1026" font-family="Georgia, serif" font-size="27" font-style="italic" fill="#2f9bc7">Ìzù 2 · Ụbọchi 2 · Cerebrum</text>
  <line x1="126" y1="1048" x2="954" y2="1048" stroke="#e0d6bf" stroke-width="2"/>

  <!-- Stats -->
  <text x="229.5" y="1110" text-anchor="middle" font-family="Arial, sans-serif" font-size="22" letter-spacing="2" fill="#9b8a6a" font-weight="700">MARKET</text>
      <text x="229.5" y="1150" text-anchor="middle" font-family="Arial, sans-serif" font-size="30" fill="#1a0f06" font-weight="800">Oriè</text><line x1="333" y1="1084" x2="333" y2="1162" stroke="#e0d6bf" stroke-width="2"/><text x="436.5" y="1110" text-anchor="middle" font-family="Arial, sans-serif" font-size="22" letter-spacing="2" fill="#9b8a6a" font-weight="700">MOON</text>
      <text x="436.5" y="1150" text-anchor="middle" font-family="Arial, sans-serif" font-size="30" fill="#1a0f06" font-weight="800">New</text><line x1="540" y1="1084" x2="540" y2="1162" stroke="#e0d6bf" stroke-width="2"/><text x="643.5" y="1110" text-anchor="middle" font-family="Arial, sans-serif" font-size="22" letter-spacing="2" fill="#9b8a6a" font-weight="700">ÌZÙ</text>
      <text x="643.5" y="1150" text-anchor="middle" font-family="Arial, sans-serif" font-size="30" fill="#1a0f06" font-weight="800">2 of 7</text><line x1="747" y1="1084" x2="747" y2="1162" stroke="#e0d6bf" stroke-width="2"/><text x="850.5" y="1110" text-anchor="middle" font-family="Arial, sans-serif" font-size="22" letter-spacing="2" fill="#9b8a6a" font-weight="700">CARD</text>
      <text x="850.5" y="1150" text-anchor="middle" font-family="Arial, sans-serif" font-size="30" fill="#1a0f06" font-weight="800">06/28</text>
  <line x1="126" y1="1176" x2="954" y2="1176" stroke="#e0d6bf" stroke-width="2"/>

  <!-- Flavor / prompt -->
  <text x="126" y="1228" font-family="Georgia, serif" font-size="44" font-style="italic" fill="#241a10" font-weight="600"><tspan x="126" dy="0">“How do my senses map my place</tspan><tspan x="126" dy="56">in Ụwà today?”</tspan></text>

  <!-- Echo -->
  <text x="126" y="1380" font-family="Georgia, serif" font-size="27" fill="#2f9bc7"><tspan x="126" dy="0">Ọ́nwá Ìféjịọkụ: I-AM-ness in contact with</tspan><tspan x="126" dy="36">the material world.</tspan></text>

  <!-- Footer inside card -->
  <line x1="126" y1="1518" x2="954" y2="1518" stroke="#e0d6bf" stroke-width="2"/>
  <text x="126" y="1568" font-family="Arial, sans-serif" font-size="34" font-weight="900" letter-spacing="4" fill="#1a0f06">IGBOKAL</text>
  <text x="540" y="1566" text-anchor="middle" font-family="Georgia, serif" font-size="23" font-style="italic" fill="#6b5c4a">Oge na Ege</text>
  <text x="954" y="1568" text-anchor="end" font-family="Arial, sans-serif" font-size="34" font-weight="900" fill="#2f9bc7">06 / 28</text>

  <!-- Bottom caption (bottom safe zone) -->
  <text x="540" y="1824" text-anchor="middle" font-family="Arial, sans-serif" font-size="26" fill="#fffcf3" opacity="0.85" letter-spacing="2">Water · North  ·  Day 6 of 28</text>
  <text x="540" y="1864" text-anchor="middle" font-family="Arial, sans-serif" font-size="24" fill="#ffe9b0" opacity="0.8" letter-spacing="3">igbokal.com/28-day</text>
</svg>