<svg xmlns="http://www.w3.org/2000/svg" width="1080" height="1920" viewBox="0 0 1080 1920">
  <defs>
    <linearGradient id="bg" x1="0" y1="0" x2="0" y2="1">
      <stop offset="0" stop-color="#E7E5C9"/>
      <stop offset="1" stop-color="#d8d3b0"/>
    </linearGradient>
    <radialGradient id="halo" cx="0.5" cy="0.30" r="0.66">
      <stop offset="0" stop-color="#ffffff" stop-opacity="0.45"/>
      <stop offset="1" stop-color="#ffffff" stop-opacity="0"/>
    </radialGradient>
    <linearGradient id="gloss" x1="0" y1="0" x2="0.7" y2="1">
      <stop offset="0" stop-color="#ffffff" stop-opacity="0.55"/>
      <stop offset="0.16" stop-color="#ffffff" stop-opacity="0.12"/>
      <stop offset="0.5" stop-color="#ffffff" stop-opacity="0"/>
    </linearGradient>
    <linearGradient id="art" x1="0" y1="0" x2="0" y2="1">
      <stop offset="0" stop-color="#c79a18" stop-opacity="0.20"/>
      <stop offset="1" stop-color="#c79a18" stop-opacity="0.05"/>
    </linearGradient>
    <filter id="cardShadow" x="-20%" y="-20%" width="140%" height="140%">
      <feDropShadow dx="0" dy="14" stdDeviation="26" flood-color="#000000" flood-opacity="0.45"/>
    </filter>
  </defs>

  <!-- Background -->
  <rect width="1080" height="1920" fill="url(#bg)"/>
  <rect width="1080" height="1920" fill="url(#halo)"/>
  <g transform="translate(60,120) rotate(0)" opacity="0.05"><g transform="translate(0,0)"><path d="M 23.0 0.0 L 22.9 -0.0 L 22.6 -0.0 L 22.2 -0.1 L 21.5 -0.2 L 20.7 -0.4 L 19.8 -0.7 L 18.7 -1.1 L 17.5 -1.5 L 16.3 -2.2 L 14.9 -2.9 L 13.6 -3.7 L 12.2 -4.7 L 10.8 -5.7 L 9.4 -6.9 L 8.1 -8.1 L 6.9 -9.4 L 5.7 -10.8 L 4.7 -12.2 L 3.7 -13.6 L 2.9 -14.9 L 2.2 -16.3 L 1.5 -17.5 L 1.1 -18.7 L 0.7 -19.8 L 0.4 -20.7 L 0.2 -21.5 L 0.1 -22.2 L 0.0 -22.6 L 0.0 -22.9 L 0.0 -23.0 L -0.0 -22.9 L -0.0 -22.6 L -0.1 -22.2 L -0.2 -21.5 L -0.4 -20.7 L -0.7 -19.8 L -1.1 -18.7 L -1.5 -17.5 L -2.2 -16.3 L -2.9 -14.9 L -3.7 -13.6 L -4.7 -12.2 L -5.7 -10.8 L -6.9 -9.4 L -8.1 -8.1 L -9.4 -6.9 L -10.8 -5.7 L -12.2 -4.7 L -13.6 -3.7 L -14.9 -2.9 L -16.3 -2.2 L -17.5 -1.5 L -18.7 -1.1 L -19.8 -0.7 L -20.7 -0.4 L -21.5 -0.2 L -22.2 -0.1 L -22.6 -0.0 L -22.9 -0.0 L -23.0 -0.0 L -22.9 0.0 L -22.6 0.0 L -22.2 0.1 L -21.5 0.2 L -20.7 0.4 L -19.8 0.7 L -18.7 1.1 L -17.5 1.5 L -16.3 2.2 L -14.9 2.9 L -13.6 3.7 L -12.2 4.7 L -10.8 5.7 L -9.4 6.9 L -8.1 8.1 L -6.9 9.4 L -5.7 10.8 L -4.7 12.2 L -3.7 13.6 L -2.9 14.9 L -2.2 16.3 L -1.5 17.5 L -1.1 18.7 L -0.7 19.8 L -0.4 20.7 L -0.2 21.5 L -0.1 22.2 L -0.0 22.6 L -0.0 22.9 L -0.0 23.0 L 0.0 22.9 L 0.0 22.6 L 0.1 22.2 L 0.2 21.5 L 0.4 20.7 L 0.7 19.8 L 1.1 18.7 L 1.5 17.5 L 2.2 16.3 L 2.9 14.9 L 3.7 13.6 L 4.7 12.2 L 5.7 10.8 L 6.9 9.4 L 8.1 8.1 L 9.4 6.9 L 10.8 5.7 L 12.2 4.7 L 13.6 3.7 L 14.9 2.9 L 16.3 2.2 L 17.5 1.5 L 18.7 1.1 L 19.8 0.7 L 20.7 0.4 L 21.5 0.2 L 22.2 0.1 L 22.6 0.0 L 22.9 0.0 L 23.0 0.0 Z" fill="#2A2A2A"/></g></g><g transform="translate(233,431) rotate(47)" opacity="0.05"><g transform="translate(0,0)"><path d="M 23.0 0.0 L 22.9 -0.0 L 22.6 -0.0 L 22.2 -0.1 L 21.5 -0.2 L 20.7 -0.4 L 19.8 -0.7 L 18.7 -1.1 L 17.5 -1.5 L 16.3 -2.2 L 14.9 -2.9 L 13.6 -3.7 L 12.2 -4.7 L 10.8 -5.7 L 9.4 -6.9 L 8.1 -8.1 L 6.9 -9.4 L 5.7 -10.8 L 4.7 -12.2 L 3.7 -13.6 L 2.9 -14.9 L 2.2 -16.3 L 1.5 -17.5 L 1.1 -18.7 L 0.7 -19.8 L 0.4 -20.7 L 0.2 -21.5 L 0.1 -22.2 L 0.0 -22.6 L 0.0 -22.9 L 0.0 -23.0 L -0.0 -22.9 L -0.0 -22.6 L -0.1 -22.2 L -0.2 -21.5 L -0.4 -20.7 L -0.7 -19.8 L -1.1 -18.7 L -1.5 -17.5 L -2.2 -16.3 L -2.9 -14.9 L -3.7 -13.6 L -4.7 -12.2 L -5.7 -10.8 L -6.9 -9.4 L -8.1 -8.1 L -9.4 -6.9 L -10.8 -5.7 L -12.2 -4.7 L -13.6 -3.7 L -14.9 -2.9 L -16.3 -2.2 L -17.5 -1.5 L -18.7 -1.1 L -19.8 -0.7 L -20.7 -0.4 L -21.5 -0.2 L -22.2 -0.1 L -22.6 -0.0 L -22.9 -0.0 L -23.0 -0.0 L -22.9 0.0 L -22.6 0.0 L -22.2 0.1 L -21.5 0.2 L -20.7 0.4 L -19.8 0.7 L -18.7 1.1 L -17.5 1.5 L -16.3 2.2 L -14.9 2.9 L -13.6 3.7 L -12.2 4.7 L -10.8 5.7 L -9.4 6.9 L -8.1 8.1 L -6.9 9.4 L -5.7 10.8 L -4.7 12.2 L -3.7 13.6 L -2.9 14.9 L -2.2 16.3 L -1.5 17.5 L -1.1 18.7 L -0.7 19.8 L -0.4 20.7 L -0.2 21.5 L -0.1 22.2 L -0.0 22.6 L -0.0 22.9 L -0.0 23.0 L 0.0 22.9 L 0.0 22.6 L 0.1 22.2 L 0.2 21.5 L 0.4 20.7 L 0.7 19.8 L 1.1 18.7 L 1.5 17.5 L 2.2 16.3 L 2.9 14.9 L 3.7 13.6 L 4.7 12.2 L 5.7 10.8 L 6.9 9.4 L 8.1 8.1 L 9.4 6.9 L 10.8 5.7 L 12.2 4.7 L 13.6 3.7 L 14.9 2.9 L 16.3 2.2 L 17.5 1.5 L 18.7 1.1 L 19.8 0.7 L 20.7 0.4 L 21.5 0.2 L 22.2 0.1 L 22.6 0.0 L 22.9 0.0 L 23.0 0.0 Z" fill="#2A2A2A"/></g></g><g transform="translate(406,742) rotate(94)" opacity="0.05"><g transform="translate(0,0)"><path d="M 23.0 0.0 L 22.9 -0.0 L 22.6 -0.0 L 22.2 -0.1 L 21.5 -0.2 L 20.7 -0.4 L 19.8 -0.7 L 18.7 -1.1 L 17.5 -1.5 L 16.3 -2.2 L 14.9 -2.9 L 13.6 -3.7 L 12.2 -4.7 L 10.8 -5.7 L 9.4 -6.9 L 8.1 -8.1 L 6.9 -9.4 L 5.7 -10.8 L 4.7 -12.2 L 3.7 -13.6 L 2.9 -14.9 L 2.2 -16.3 L 1.5 -17.5 L 1.1 -18.7 L 0.7 -19.8 L 0.4 -20.7 L 0.2 -21.5 L 0.1 -22.2 L 0.0 -22.6 L 0.0 -22.9 L 0.0 -23.0 L -0.0 -22.9 L -0.0 -22.6 L -0.1 -22.2 L -0.2 -21.5 L -0.4 -20.7 L -0.7 -19.8 L -1.1 -18.7 L -1.5 -17.5 L -2.2 -16.3 L -2.9 -14.9 L -3.7 -13.6 L -4.7 -12.2 L -5.7 -10.8 L -6.9 -9.4 L -8.1 -8.1 L -9.4 -6.9 L -10.8 -5.7 L -12.2 -4.7 L -13.6 -3.7 L -14.9 -2.9 L -16.3 -2.2 L -17.5 -1.5 L -18.7 -1.1 L -19.8 -0.7 L -20.7 -0.4 L -21.5 -0.2 L -22.2 -0.1 L -22.6 -0.0 L -22.9 -0.0 L -23.0 -0.0 L -22.9 0.0 L -22.6 0.0 L -22.2 0.1 L -21.5 0.2 L -20.7 0.4 L -19.8 0.7 L -18.7 1.1 L -17.5 1.5 L -16.3 2.2 L -14.9 2.9 L -13.6 3.7 L -12.2 4.7 L -10.8 5.7 L -9.4 6.9 L -8.1 8.1 L -6.9 9.4 L -5.7 10.8 L -4.7 12.2 L -3.7 13.6 L -2.9 14.9 L -2.2 16.3 L -1.5 17.5 L -1.1 18.7 L -0.7 19.8 L -0.4 20.7 L -0.2 21.5 L -0.1 22.2 L -0.0 22.6 L -0.0 22.9 L -0.0 23.0 L 0.0 22.9 L 0.0 22.6 L 0.1 22.2 L 0.2 21.5 L 0.4 20.7 L 0.7 19.8 L 1.1 18.7 L 1.5 17.5 L 2.2 16.3 L 2.9 14.9 L 3.7 13.6 L 4.7 12.2 L 5.7 10.8 L 6.9 9.4 L 8.1 8.1 L 9.4 6.9 L 10.8 5.7 L 12.2 4.7 L 13.6 3.7 L 14.9 2.9 L 16.3 2.2 L 17.5 1.5 L 18.7 1.1 L 19.8 0.7 L 20.7 0.4 L 21.5 0.2 L 22.2 0.1 L 22.6 0.0 L 22.9 0.0 L 23.0 0.0 Z" fill="#2A2A2A"/></g></g><g transform="translate(579,1053) rotate(141)" opacity="0.05"><g transform="translate(0,0)"><path d="M 23.0 0.0 L 22.9 -0.0 L 22.6 -0.0 L 22.2 -0.1 L 21.5 -0.2 L 20.7 -0.4 L 19.8 -0.7 L 18.7 -1.1 L 17.5 -1.5 L 16.3 -2.2 L 14.9 -2.9 L 13.6 -3.7 L 12.2 -4.7 L 10.8 -5.7 L 9.4 -6.9 L 8.1 -8.1 L 6.9 -9.4 L 5.7 -10.8 L 4.7 -12.2 L 3.7 -13.6 L 2.9 -14.9 L 2.2 -16.3 L 1.5 -17.5 L 1.1 -18.7 L 0.7 -19.8 L 0.4 -20.7 L 0.2 -21.5 L 0.1 -22.2 L 0.0 -22.6 L 0.0 -22.9 L 0.0 -23.0 L -0.0 -22.9 L -0.0 -22.6 L -0.1 -22.2 L -0.2 -21.5 L -0.4 -20.7 L -0.7 -19.8 L -1.1 -18.7 L -1.5 -17.5 L -2.2 -16.3 L -2.9 -14.9 L -3.7 -13.6 L -4.7 -12.2 L -5.7 -10.8 L -6.9 -9.4 L -8.1 -8.1 L -9.4 -6.9 L -10.8 -5.7 L -12.2 -4.7 L -13.6 -3.7 L -14.9 -2.9 L -16.3 -2.2 L -17.5 -1.5 L -18.7 -1.1 L -19.8 -0.7 L -20.7 -0.4 L -21.5 -0.2 L -22.2 -0.1 L -22.6 -0.0 L -22.9 -0.0 L -23.0 -0.0 L -22.9 0.0 L -22.6 0.0 L -22.2 0.1 L -21.5 0.2 L -20.7 0.4 L -19.8 0.7 L -18.7 1.1 L -17.5 1.5 L -16.3 2.2 L -14.9 2.9 L -13.6 3.7 L -12.2 4.7 L -10.8 5.7 L -9.4 6.9 L -8.1 8.1 L -6.9 9.4 L -5.7 10.8 L -4.7 12.2 L -3.7 13.6 L -2.9 14.9 L -2.2 16.3 L -1.5 17.5 L -1.1 18.7 L -0.7 19.8 L -0.4 20.7 L -0.2 21.5 L -0.1 22.2 L -0.0 22.6 L -0.0 22.9 L -0.0 23.0 L 0.0 22.9 L 0.0 22.6 L 0.1 22.2 L 0.2 21.5 L 0.4 20.7 L 0.7 19.8 L 1.1 18.7 L 1.5 17.5 L 2.2 16.3 L 2.9 14.9 L 3.7 13.6 L 4.7 12.2 L 5.7 10.8 L 6.9 9.4 L 8.1 8.1 L 9.4 6.9 L 10.8 5.7 L 12.2 4.7 L 13.6 3.7 L 14.9 2.9 L 16.3 2.2 L 17.5 1.5 L 18.7 1.1 L 19.8 0.7 L 20.7 0.4 L 21.5 0.2 L 22.2 0.1 L 22.6 0.0 L 22.9 0.0 L 23.0 0.0 Z" fill="#2A2A2A"/></g></g><g transform="translate(752,1364) rotate(188)" opacity="0.05"><g transform="translate(0,0)"><path d="M 23.0 0.0 L 22.9 -0.0 L 22.6 -0.0 L 22.2 -0.1 L 21.5 -0.2 L 20.7 -0.4 L 19.8 -0.7 L 18.7 -1.1 L 17.5 -1.5 L 16.3 -2.2 L 14.9 -2.9 L 13.6 -3.7 L 12.2 -4.7 L 10.8 -5.7 L 9.4 -6.9 L 8.1 -8.1 L 6.9 -9.4 L 5.7 -10.8 L 4.7 -12.2 L 3.7 -13.6 L 2.9 -14.9 L 2.2 -16.3 L 1.5 -17.5 L 1.1 -18.7 L 0.7 -19.8 L 0.4 -20.7 L 0.2 -21.5 L 0.1 -22.2 L 0.0 -22.6 L 0.0 -22.9 L 0.0 -23.0 L -0.0 -22.9 L -0.0 -22.6 L -0.1 -22.2 L -0.2 -21.5 L -0.4 -20.7 L -0.7 -19.8 L -1.1 -18.7 L -1.5 -17.5 L -2.2 -16.3 L -2.9 -14.9 L -3.7 -13.6 L -4.7 -12.2 L -5.7 -10.8 L -6.9 -9.4 L -8.1 -8.1 L -9.4 -6.9 L -10.8 -5.7 L -12.2 -4.7 L -13.6 -3.7 L -14.9 -2.9 L -16.3 -2.2 L -17.5 -1.5 L -18.7 -1.1 L -19.8 -0.7 L -20.7 -0.4 L -21.5 -0.2 L -22.2 -0.1 L -22.6 -0.0 L -22.9 -0.0 L -23.0 -0.0 L -22.9 0.0 L -22.6 0.0 L -22.2 0.1 L -21.5 0.2 L -20.7 0.4 L -19.8 0.7 L -18.7 1.1 L -17.5 1.5 L -16.3 2.2 L -14.9 2.9 L -13.6 3.7 L -12.2 4.7 L -10.8 5.7 L -9.4 6.9 L -8.1 8.1 L -6.9 9.4 L -5.7 10.8 L -4.7 12.2 L -3.7 13.6 L -2.9 14.9 L -2.2 16.3 L -1.5 17.5 L -1.1 18.7 L -0.7 19.8 L -0.4 20.7 L -0.2 21.5 L -0.1 22.2 L -0.0 22.6 L -0.0 22.9 L -0.0 23.0 L 0.0 22.9 L 0.0 22.6 L 0.1 22.2 L 0.2 21.5 L 0.4 20.7 L 0.7 19.8 L 1.1 18.7 L 1.5 17.5 L 2.2 16.3 L 2.9 14.9 L 3.7 13.6 L 4.7 12.2 L 5.7 10.8 L 6.9 9.4 L 8.1 8.1 L 9.4 6.9 L 10.8 5.7 L 12.2 4.7 L 13.6 3.7 L 14.9 2.9 L 16.3 2.2 L 17.5 1.5 L 18.7 1.1 L 19.8 0.7 L 20.7 0.4 L 21.5 0.2 L 22.2 0.1 L 22.6 0.0 L 22.9 0.0 L 23.0 0.0 Z" fill="#2A2A2A"/></g></g><g transform="translate(925,1675) rotate(235)" opacity="0.05"><g transform="translate(0,0)"><path d="M 23.0 0.0 L 22.9 -0.0 L 22.6 -0.0 L 22.2 -0.1 L 21.5 -0.2 L 20.7 -0.4 L 19.8 -0.7 L 18.7 -1.1 L 17.5 -1.5 L 16.3 -2.2 L 14.9 -2.9 L 13.6 -3.7 L 12.2 -4.7 L 10.8 -5.7 L 9.4 -6.9 L 8.1 -8.1 L 6.9 -9.4 L 5.7 -10.8 L 4.7 -12.2 L 3.7 -13.6 L 2.9 -14.9 L 2.2 -16.3 L 1.5 -17.5 L 1.1 -18.7 L 0.7 -19.8 L 0.4 -20.7 L 0.2 -21.5 L 0.1 -22.2 L 0.0 -22.6 L 0.0 -22.9 L 0.0 -23.0 L -0.0 -22.9 L -0.0 -22.6 L -0.1 -22.2 L -0.2 -21.5 L -0.4 -20.7 L -0.7 -19.8 L -1.1 -18.7 L -1.5 -17.5 L -2.2 -16.3 L -2.9 -14.9 L -3.7 -13.6 L -4.7 -12.2 L -5.7 -10.8 L -6.9 -9.4 L -8.1 -8.1 L -9.4 -6.9 L -10.8 -5.7 L -12.2 -4.7 L -13.6 -3.7 L -14.9 -2.9 L -16.3 -2.2 L -17.5 -1.5 L -18.7 -1.1 L -19.8 -0.7 L -20.7 -0.4 L -21.5 -0.2 L -22.2 -0.1 L -22.6 -0.0 L -22.9 -0.0 L -23.0 -0.0 L -22.9 0.0 L -22.6 0.0 L -22.2 0.1 L -21.5 0.2 L -20.7 0.4 L -19.8 0.7 L -18.7 1.1 L -17.5 1.5 L -16.3 2.2 L -14.9 2.9 L -13.6 3.7 L -12.2 4.7 L -10.8 5.7 L -9.4 6.9 L -8.1 8.1 L -6.9 9.4 L -5.7 10.8 L -4.7 12.2 L -3.7 13.6 L -2.9 14.9 L -2.2 16.3 L -1.5 17.5 L -1.1 18.7 L -0.7 19.8 L -0.4 20.7 L -0.2 21.5 L -0.1 22.2 L -0.0 22.6 L -0.0 22.9 L -0.0 23.0 L 0.0 22.9 L 0.0 22.6 L 0.1 22.2 L 0.2 21.5 L 0.4 20.7 L 0.7 19.8 L 1.1 18.7 L 1.5 17.5 L 2.2 16.3 L 2.9 14.9 L 3.7 13.6 L 4.7 12.2 L 5.7 10.8 L 6.9 9.4 L 8.1 8.1 L 9.4 6.9 L 10.8 5.7 L 12.2 4.7 L 13.6 3.7 L 14.9 2.9 L 16.3 2.2 L 17.5 1.5 L 18.7 1.1 L 19.8 0.7 L 20.7 0.4 L 21.5 0.2 L 22.2 0.1 L 22.6 0.0 L 22.9 0.0 L 23.0 0.0 Z" fill="#2A2A2A"/></g></g><g transform="translate(18,66) rotate(282)" opacity="0.05"><g transform="translate(0,0)"><path d="M 23.0 0.0 L 22.9 -0.0 L 22.6 -0.0 L 22.2 -0.1 L 21.5 -0.2 L 20.7 -0.4 L 19.8 -0.7 L 18.7 -1.1 L 17.5 -1.5 L 16.3 -2.2 L 14.9 -2.9 L 13.6 -3.7 L 12.2 -4.7 L 10.8 -5.7 L 9.4 -6.9 L 8.1 -8.1 L 6.9 -9.4 L 5.7 -10.8 L 4.7 -12.2 L 3.7 -13.6 L 2.9 -14.9 L 2.2 -16.3 L 1.5 -17.5 L 1.1 -18.7 L 0.7 -19.8 L 0.4 -20.7 L 0.2 -21.5 L 0.1 -22.2 L 0.0 -22.6 L 0.0 -22.9 L 0.0 -23.0 L -0.0 -22.9 L -0.0 -22.6 L -0.1 -22.2 L -0.2 -21.5 L -0.4 -20.7 L -0.7 -19.8 L -1.1 -18.7 L -1.5 -17.5 L -2.2 -16.3 L -2.9 -14.9 L -3.7 -13.6 L -4.7 -12.2 L -5.7 -10.8 L -6.9 -9.4 L -8.1 -8.1 L -9.4 -6.9 L -10.8 -5.7 L -12.2 -4.7 L -13.6 -3.7 L -14.9 -2.9 L -16.3 -2.2 L -17.5 -1.5 L -18.7 -1.1 L -19.8 -0.7 L -20.7 -0.4 L -21.5 -0.2 L -22.2 -0.1 L -22.6 -0.0 L -22.9 -0.0 L -23.0 -0.0 L -22.9 0.0 L -22.6 0.0 L -22.2 0.1 L -21.5 0.2 L -20.7 0.4 L -19.8 0.7 L -18.7 1.1 L -17.5 1.5 L -16.3 2.2 L -14.9 2.9 L -13.6 3.7 L -12.2 4.7 L -10.8 5.7 L -9.4 6.9 L -8.1 8.1 L -6.9 9.4 L -5.7 10.8 L -4.7 12.2 L -3.7 13.6 L -2.9 14.9 L -2.2 16.3 L -1.5 17.5 L -1.1 18.7 L -0.7 19.8 L -0.4 20.7 L -0.2 21.5 L -0.1 22.2 L -0.0 22.6 L -0.0 22.9 L -0.0 23.0 L 0.0 22.9 L 0.0 22.6 L 0.1 22.2 L 0.2 21.5 L 0.4 20.7 L 0.7 19.8 L 1.1 18.7 L 1.5 17.5 L 2.2 16.3 L 2.9 14.9 L 3.7 13.6 L 4.7 12.2 L 5.7 10.8 L 6.9 9.4 L 8.1 8.1 L 9.4 6.9 L 10.8 5.7 L 12.2 4.7 L 13.6 3.7 L 14.9 2.9 L 16.3 2.2 L 17.5 1.5 L 18.7 1.1 L 19.8 0.7 L 20.7 0.4 L 21.5 0.2 L 22.2 0.1 L 22.6 0.0 L 22.9 0.0 L 23.0 0.0 Z" fill="#2A2A2A"/></g></g><g transform="translate(191,377) rotate(329)" opacity="0.05"><g transform="translate(0,0)"><path d="M 23.0 0.0 L 22.9 -0.0 L 22.6 -0.0 L 22.2 -0.1 L 21.5 -0.2 L 20.7 -0.4 L 19.8 -0.7 L 18.7 -1.1 L 17.5 -1.5 L 16.3 -2.2 L 14.9 -2.9 L 13.6 -3.7 L 12.2 -4.7 L 10.8 -5.7 L 9.4 -6.9 L 8.1 -8.1 L 6.9 -9.4 L 5.7 -10.8 L 4.7 -12.2 L 3.7 -13.6 L 2.9 -14.9 L 2.2 -16.3 L 1.5 -17.5 L 1.1 -18.7 L 0.7 -19.8 L 0.4 -20.7 L 0.2 -21.5 L 0.1 -22.2 L 0.0 -22.6 L 0.0 -22.9 L 0.0 -23.0 L -0.0 -22.9 L -0.0 -22.6 L -0.1 -22.2 L -0.2 -21.5 L -0.4 -20.7 L -0.7 -19.8 L -1.1 -18.7 L -1.5 -17.5 L -2.2 -16.3 L -2.9 -14.9 L -3.7 -13.6 L -4.7 -12.2 L -5.7 -10.8 L -6.9 -9.4 L -8.1 -8.1 L -9.4 -6.9 L -10.8 -5.7 L -12.2 -4.7 L -13.6 -3.7 L -14.9 -2.9 L -16.3 -2.2 L -17.5 -1.5 L -18.7 -1.1 L -19.8 -0.7 L -20.7 -0.4 L -21.5 -0.2 L -22.2 -0.1 L -22.6 -0.0 L -22.9 -0.0 L -23.0 -0.0 L -22.9 0.0 L -22.6 0.0 L -22.2 0.1 L -21.5 0.2 L -20.7 0.4 L -19.8 0.7 L -18.7 1.1 L -17.5 1.5 L -16.3 2.2 L -14.9 2.9 L -13.6 3.7 L -12.2 4.7 L -10.8 5.7 L -9.4 6.9 L -8.1 8.1 L -6.9 9.4 L -5.7 10.8 L -4.7 12.2 L -3.7 13.6 L -2.9 14.9 L -2.2 16.3 L -1.5 17.5 L -1.1 18.7 L -0.7 19.8 L -0.4 20.7 L -0.2 21.5 L -0.1 22.2 L -0.0 22.6 L -0.0 22.9 L -0.0 23.0 L 0.0 22.9 L 0.0 22.6 L 0.1 22.2 L 0.2 21.5 L 0.4 20.7 L 0.7 19.8 L 1.1 18.7 L 1.5 17.5 L 2.2 16.3 L 2.9 14.9 L 3.7 13.6 L 4.7 12.2 L 5.7 10.8 L 6.9 9.4 L 8.1 8.1 L 9.4 6.9 L 10.8 5.7 L 12.2 4.7 L 13.6 3.7 L 14.9 2.9 L 16.3 2.2 L 17.5 1.5 L 18.7 1.1 L 19.8 0.7 L 20.7 0.4 L 21.5 0.2 L 22.2 0.1 L 22.6 0.0 L 22.9 0.0 L 23.0 0.0 Z" fill="#2A2A2A"/></g></g><g transform="translate(364,688) rotate(16)" opacity="0.05"><g transform="translate(0,0)"><path d="M 23.0 0.0 L 22.9 -0.0 L 22.6 -0.0 L 22.2 -0.1 L 21.5 -0.2 L 20.7 -0.4 L 19.8 -0.7 L 18.7 -1.1 L 17.5 -1.5 L 16.3 -2.2 L 14.9 -2.9 L 13.6 -3.7 L 12.2 -4.7 L 10.8 -5.7 L 9.4 -6.9 L 8.1 -8.1 L 6.9 -9.4 L 5.7 -10.8 L 4.7 -12.2 L 3.7 -13.6 L 2.9 -14.9 L 2.2 -16.3 L 1.5 -17.5 L 1.1 -18.7 L 0.7 -19.8 L 0.4 -20.7 L 0.2 -21.5 L 0.1 -22.2 L 0.0 -22.6 L 0.0 -22.9 L 0.0 -23.0 L -0.0 -22.9 L -0.0 -22.6 L -0.1 -22.2 L -0.2 -21.5 L -0.4 -20.7 L -0.7 -19.8 L -1.1 -18.7 L -1.5 -17.5 L -2.2 -16.3 L -2.9 -14.9 L -3.7 -13.6 L -4.7 -12.2 L -5.7 -10.8 L -6.9 -9.4 L -8.1 -8.1 L -9.4 -6.9 L -10.8 -5.7 L -12.2 -4.7 L -13.6 -3.7 L -14.9 -2.9 L -16.3 -2.2 L -17.5 -1.5 L -18.7 -1.1 L -19.8 -0.7 L -20.7 -0.4 L -21.5 -0.2 L -22.2 -0.1 L -22.6 -0.0 L -22.9 -0.0 L -23.0 -0.0 L -22.9 0.0 L -22.6 0.0 L -22.2 0.1 L -21.5 0.2 L -20.7 0.4 L -19.8 0.7 L -18.7 1.1 L -17.5 1.5 L -16.3 2.2 L -14.9 2.9 L -13.6 3.7 L -12.2 4.7 L -10.8 5.7 L -9.4 6.9 L -8.1 8.1 L -6.9 9.4 L -5.7 10.8 L -4.7 12.2 L -3.7 13.6 L -2.9 14.9 L -2.2 16.3 L -1.5 17.5 L -1.1 18.7 L -0.7 19.8 L -0.4 20.7 L -0.2 21.5 L -0.1 22.2 L -0.0 22.6 L -0.0 22.9 L -0.0 23.0 L 0.0 22.9 L 0.0 22.6 L 0.1 22.2 L 0.2 21.5 L 0.4 20.7 L 0.7 19.8 L 1.1 18.7 L 1.5 17.5 L 2.2 16.3 L 2.9 14.9 L 3.7 13.6 L 4.7 12.2 L 5.7 10.8 L 6.9 9.4 L 8.1 8.1 L 9.4 6.9 L 10.8 5.7 L 12.2 4.7 L 13.6 3.7 L 14.9 2.9 L 16.3 2.2 L 17.5 1.5 L 18.7 1.1 L 19.8 0.7 L 20.7 0.4 L 21.5 0.2 L 22.2 0.1 L 22.6 0.0 L 22.9 0.0 L 23.0 0.0 Z" fill="#2A2A2A"/></g></g><g transform="translate(537,999) rotate(63)" opacity="0.05"><g transform="translate(0,0)"><path d="M 23.0 0.0 L 22.9 -0.0 L 22.6 -0.0 L 22.2 -0.1 L 21.5 -0.2 L 20.7 -0.4 L 19.8 -0.7 L 18.7 -1.1 L 17.5 -1.5 L 16.3 -2.2 L 14.9 -2.9 L 13.6 -3.7 L 12.2 -4.7 L 10.8 -5.7 L 9.4 -6.9 L 8.1 -8.1 L 6.9 -9.4 L 5.7 -10.8 L 4.7 -12.2 L 3.7 -13.6 L 2.9 -14.9 L 2.2 -16.3 L 1.5 -17.5 L 1.1 -18.7 L 0.7 -19.8 L 0.4 -20.7 L 0.2 -21.5 L 0.1 -22.2 L 0.0 -22.6 L 0.0 -22.9 L 0.0 -23.0 L -0.0 -22.9 L -0.0 -22.6 L -0.1 -22.2 L -0.2 -21.5 L -0.4 -20.7 L -0.7 -19.8 L -1.1 -18.7 L -1.5 -17.5 L -2.2 -16.3 L -2.9 -14.9 L -3.7 -13.6 L -4.7 -12.2 L -5.7 -10.8 L -6.9 -9.4 L -8.1 -8.1 L -9.4 -6.9 L -10.8 -5.7 L -12.2 -4.7 L -13.6 -3.7 L -14.9 -2.9 L -16.3 -2.2 L -17.5 -1.5 L -18.7 -1.1 L -19.8 -0.7 L -20.7 -0.4 L -21.5 -0.2 L -22.2 -0.1 L -22.6 -0.0 L -22.9 -0.0 L -23.0 -0.0 L -22.9 0.0 L -22.6 0.0 L -22.2 0.1 L -21.5 0.2 L -20.7 0.4 L -19.8 0.7 L -18.7 1.1 L -17.5 1.5 L -16.3 2.2 L -14.9 2.9 L -13.6 3.7 L -12.2 4.7 L -10.8 5.7 L -9.4 6.9 L -8.1 8.1 L -6.9 9.4 L -5.7 10.8 L -4.7 12.2 L -3.7 13.6 L -2.9 14.9 L -2.2 16.3 L -1.5 17.5 L -1.1 18.7 L -0.7 19.8 L -0.4 20.7 L -0.2 21.5 L -0.1 22.2 L -0.0 22.6 L -0.0 22.9 L -0.0 23.0 L 0.0 22.9 L 0.0 22.6 L 0.1 22.2 L 0.2 21.5 L 0.4 20.7 L 0.7 19.8 L 1.1 18.7 L 1.5 17.5 L 2.2 16.3 L 2.9 14.9 L 3.7 13.6 L 4.7 12.2 L 5.7 10.8 L 6.9 9.4 L 8.1 8.1 L 9.4 6.9 L 10.8 5.7 L 12.2 4.7 L 13.6 3.7 L 14.9 2.9 L 16.3 2.2 L 17.5 1.5 L 18.7 1.1 L 19.8 0.7 L 20.7 0.4 L 21.5 0.2 L 22.2 0.1 L 22.6 0.0 L 22.9 0.0 L 23.0 0.0 Z" fill="#2A2A2A"/></g></g><g transform="translate(710,1310) rotate(110)" opacity="0.05"><g transform="translate(0,0)"><path d="M 23.0 0.0 L 22.9 -0.0 L 22.6 -0.0 L 22.2 -0.1 L 21.5 -0.2 L 20.7 -0.4 L 19.8 -0.7 L 18.7 -1.1 L 17.5 -1.5 L 16.3 -2.2 L 14.9 -2.9 L 13.6 -3.7 L 12.2 -4.7 L 10.8 -5.7 L 9.4 -6.9 L 8.1 -8.1 L 6.9 -9.4 L 5.7 -10.8 L 4.7 -12.2 L 3.7 -13.6 L 2.9 -14.9 L 2.2 -16.3 L 1.5 -17.5 L 1.1 -18.7 L 0.7 -19.8 L 0.4 -20.7 L 0.2 -21.5 L 0.1 -22.2 L 0.0 -22.6 L 0.0 -22.9 L 0.0 -23.0 L -0.0 -22.9 L -0.0 -22.6 L -0.1 -22.2 L -0.2 -21.5 L -0.4 -20.7 L -0.7 -19.8 L -1.1 -18.7 L -1.5 -17.5 L -2.2 -16.3 L -2.9 -14.9 L -3.7 -13.6 L -4.7 -12.2 L -5.7 -10.8 L -6.9 -9.4 L -8.1 -8.1 L -9.4 -6.9 L -10.8 -5.7 L -12.2 -4.7 L -13.6 -3.7 L -14.9 -2.9 L -16.3 -2.2 L -17.5 -1.5 L -18.7 -1.1 L -19.8 -0.7 L -20.7 -0.4 L -21.5 -0.2 L -22.2 -0.1 L -22.6 -0.0 L -22.9 -0.0 L -23.0 -0.0 L -22.9 0.0 L -22.6 0.0 L -22.2 0.1 L -21.5 0.2 L -20.7 0.4 L -19.8 0.7 L -18.7 1.1 L -17.5 1.5 L -16.3 2.2 L -14.9 2.9 L -13.6 3.7 L -12.2 4.7 L -10.8 5.7 L -9.4 6.9 L -8.1 8.1 L -6.9 9.4 L -5.7 10.8 L -4.7 12.2 L -3.7 13.6 L -2.9 14.9 L -2.2 16.3 L -1.5 17.5 L -1.1 18.7 L -0.7 19.8 L -0.4 20.7 L -0.2 21.5 L -0.1 22.2 L -0.0 22.6 L -0.0 22.9 L -0.0 23.0 L 0.0 22.9 L 0.0 22.6 L 0.1 22.2 L 0.2 21.5 L 0.4 20.7 L 0.7 19.8 L 1.1 18.7 L 1.5 17.5 L 2.2 16.3 L 2.9 14.9 L 3.7 13.6 L 4.7 12.2 L 5.7 10.8 L 6.9 9.4 L 8.1 8.1 L 9.4 6.9 L 10.8 5.7 L 12.2 4.7 L 13.6 3.7 L 14.9 2.9 L 16.3 2.2 L 17.5 1.5 L 18.7 1.1 L 19.8 0.7 L 20.7 0.4 L 21.5 0.2 L 22.2 0.1 L 22.6 0.0 L 22.9 0.0 L 23.0 0.0 Z" fill="#2A2A2A"/></g></g><g transform="translate(883,1621) rotate(157)" opacity="0.05"><g transform="translate(0,0)"><path d="M 23.0 0.0 L 22.9 -0.0 L 22.6 -0.0 L 22.2 -0.1 L 21.5 -0.2 L 20.7 -0.4 L 19.8 -0.7 L 18.7 -1.1 L 17.5 -1.5 L 16.3 -2.2 L 14.9 -2.9 L 13.6 -3.7 L 12.2 -4.7 L 10.8 -5.7 L 9.4 -6.9 L 8.1 -8.1 L 6.9 -9.4 L 5.7 -10.8 L 4.7 -12.2 L 3.7 -13.6 L 2.9 -14.9 L 2.2 -16.3 L 1.5 -17.5 L 1.1 -18.7 L 0.7 -19.8 L 0.4 -20.7 L 0.2 -21.5 L 0.1 -22.2 L 0.0 -22.6 L 0.0 -22.9 L 0.0 -23.0 L -0.0 -22.9 L -0.0 -22.6 L -0.1 -22.2 L -0.2 -21.5 L -0.4 -20.7 L -0.7 -19.8 L -1.1 -18.7 L -1.5 -17.5 L -2.2 -16.3 L -2.9 -14.9 L -3.7 -13.6 L -4.7 -12.2 L -5.7 -10.8 L -6.9 -9.4 L -8.1 -8.1 L -9.4 -6.9 L -10.8 -5.7 L -12.2 -4.7 L -13.6 -3.7 L -14.9 -2.9 L -16.3 -2.2 L -17.5 -1.5 L -18.7 -1.1 L -19.8 -0.7 L -20.7 -0.4 L -21.5 -0.2 L -22.2 -0.1 L -22.6 -0.0 L -22.9 -0.0 L -23.0 -0.0 L -22.9 0.0 L -22.6 0.0 L -22.2 0.1 L -21.5 0.2 L -20.7 0.4 L -19.8 0.7 L -18.7 1.1 L -17.5 1.5 L -16.3 2.2 L -14.9 2.9 L -13.6 3.7 L -12.2 4.7 L -10.8 5.7 L -9.4 6.9 L -8.1 8.1 L -6.9 9.4 L -5.7 10.8 L -4.7 12.2 L -3.7 13.6 L -2.9 14.9 L -2.2 16.3 L -1.5 17.5 L -1.1 18.7 L -0.7 19.8 L -0.4 20.7 L -0.2 21.5 L -0.1 22.2 L -0.0 22.6 L -0.0 22.9 L -0.0 23.0 L 0.0 22.9 L 0.0 22.6 L 0.1 22.2 L 0.2 21.5 L 0.4 20.7 L 0.7 19.8 L 1.1 18.7 L 1.5 17.5 L 2.2 16.3 L 2.9 14.9 L 3.7 13.6 L 4.7 12.2 L 5.7 10.8 L 6.9 9.4 L 8.1 8.1 L 9.4 6.9 L 10.8 5.7 L 12.2 4.7 L 13.6 3.7 L 14.9 2.9 L 16.3 2.2 L 17.5 1.5 L 18.7 1.1 L 19.8 0.7 L 20.7 0.4 L 21.5 0.2 L 22.2 0.1 L 22.6 0.0 L 22.9 0.0 L 23.0 0.0 Z" fill="#2A2A2A"/></g></g><g transform="translate(1056,12) rotate(204)" opacity="0.05"><g transform="translate(0,0)"><path d="M 23.0 0.0 L 22.9 -0.0 L 22.6 -0.0 L 22.2 -0.1 L 21.5 -0.2 L 20.7 -0.4 L 19.8 -0.7 L 18.7 -1.1 L 17.5 -1.5 L 16.3 -2.2 L 14.9 -2.9 L 13.6 -3.7 L 12.2 -4.7 L 10.8 -5.7 L 9.4 -6.9 L 8.1 -8.1 L 6.9 -9.4 L 5.7 -10.8 L 4.7 -12.2 L 3.7 -13.6 L 2.9 -14.9 L 2.2 -16.3 L 1.5 -17.5 L 1.1 -18.7 L 0.7 -19.8 L 0.4 -20.7 L 0.2 -21.5 L 0.1 -22.2 L 0.0 -22.6 L 0.0 -22.9 L 0.0 -23.0 L -0.0 -22.9 L -0.0 -22.6 L -0.1 -22.2 L -0.2 -21.5 L -0.4 -20.7 L -0.7 -19.8 L -1.1 -18.7 L -1.5 -17.5 L -2.2 -16.3 L -2.9 -14.9 L -3.7 -13.6 L -4.7 -12.2 L -5.7 -10.8 L -6.9 -9.4 L -8.1 -8.1 L -9.4 -6.9 L -10.8 -5.7 L -12.2 -4.7 L -13.6 -3.7 L -14.9 -2.9 L -16.3 -2.2 L -17.5 -1.5 L -18.7 -1.1 L -19.8 -0.7 L -20.7 -0.4 L -21.5 -0.2 L -22.2 -0.1 L -22.6 -0.0 L -22.9 -0.0 L -23.0 -0.0 L -22.9 0.0 L -22.6 0.0 L -22.2 0.1 L -21.5 0.2 L -20.7 0.4 L -19.8 0.7 L -18.7 1.1 L -17.5 1.5 L -16.3 2.2 L -14.9 2.9 L -13.6 3.7 L -12.2 4.7 L -10.8 5.7 L -9.4 6.9 L -8.1 8.1 L -6.9 9.4 L -5.7 10.8 L -4.7 12.2 L -3.7 13.6 L -2.9 14.9 L -2.2 16.3 L -1.5 17.5 L -1.1 18.7 L -0.7 19.8 L -0.4 20.7 L -0.2 21.5 L -0.1 22.2 L -0.0 22.6 L -0.0 22.9 L -0.0 23.0 L 0.0 22.9 L 0.0 22.6 L 0.1 22.2 L 0.2 21.5 L 0.4 20.7 L 0.7 19.8 L 1.1 18.7 L 1.5 17.5 L 2.2 16.3 L 2.9 14.9 L 3.7 13.6 L 4.7 12.2 L 5.7 10.8 L 6.9 9.4 L 8.1 8.1 L 9.4 6.9 L 10.8 5.7 L 12.2 4.7 L 13.6 3.7 L 14.9 2.9 L 16.3 2.2 L 17.5 1.5 L 18.7 1.1 L 19.8 0.7 L 20.7 0.4 L 21.5 0.2 L 22.2 0.1 L 22.6 0.0 L 22.9 0.0 L 23.0 0.0 Z" fill="#2A2A2A"/></g></g><g transform="translate(149,323) rotate(251)" opacity="0.05"><g transform="translate(0,0)"><path d="M 23.0 0.0 L 22.9 -0.0 L 22.6 -0.0 L 22.2 -0.1 L 21.5 -0.2 L 20.7 -0.4 L 19.8 -0.7 L 18.7 -1.1 L 17.5 -1.5 L 16.3 -2.2 L 14.9 -2.9 L 13.6 -3.7 L 12.2 -4.7 L 10.8 -5.7 L 9.4 -6.9 L 8.1 -8.1 L 6.9 -9.4 L 5.7 -10.8 L 4.7 -12.2 L 3.7 -13.6 L 2.9 -14.9 L 2.2 -16.3 L 1.5 -17.5 L 1.1 -18.7 L 0.7 -19.8 L 0.4 -20.7 L 0.2 -21.5 L 0.1 -22.2 L 0.0 -22.6 L 0.0 -22.9 L 0.0 -23.0 L -0.0 -22.9 L -0.0 -22.6 L -0.1 -22.2 L -0.2 -21.5 L -0.4 -20.7 L -0.7 -19.8 L -1.1 -18.7 L -1.5 -17.5 L -2.2 -16.3 L -2.9 -14.9 L -3.7 -13.6 L -4.7 -12.2 L -5.7 -10.8 L -6.9 -9.4 L -8.1 -8.1 L -9.4 -6.9 L -10.8 -5.7 L -12.2 -4.7 L -13.6 -3.7 L -14.9 -2.9 L -16.3 -2.2 L -17.5 -1.5 L -18.7 -1.1 L -19.8 -0.7 L -20.7 -0.4 L -21.5 -0.2 L -22.2 -0.1 L -22.6 -0.0 L -22.9 -0.0 L -23.0 -0.0 L -22.9 0.0 L -22.6 0.0 L -22.2 0.1 L -21.5 0.2 L -20.7 0.4 L -19.8 0.7 L -18.7 1.1 L -17.5 1.5 L -16.3 2.2 L -14.9 2.9 L -13.6 3.7 L -12.2 4.7 L -10.8 5.7 L -9.4 6.9 L -8.1 8.1 L -6.9 9.4 L -5.7 10.8 L -4.7 12.2 L -3.7 13.6 L -2.9 14.9 L -2.2 16.3 L -1.5 17.5 L -1.1 18.7 L -0.7 19.8 L -0.4 20.7 L -0.2 21.5 L -0.1 22.2 L -0.0 22.6 L -0.0 22.9 L -0.0 23.0 L 0.0 22.9 L 0.0 22.6 L 0.1 22.2 L 0.2 21.5 L 0.4 20.7 L 0.7 19.8 L 1.1 18.7 L 1.5 17.5 L 2.2 16.3 L 2.9 14.9 L 3.7 13.6 L 4.7 12.2 L 5.7 10.8 L 6.9 9.4 L 8.1 8.1 L 9.4 6.9 L 10.8 5.7 L 12.2 4.7 L 13.6 3.7 L 14.9 2.9 L 16.3 2.2 L 17.5 1.5 L 18.7 1.1 L 19.8 0.7 L 20.7 0.4 L 21.5 0.2 L 22.2 0.1 L 22.6 0.0 L 22.9 0.0 L 23.0 0.0 Z" fill="#2A2A2A"/></g></g><g transform="translate(322,634) rotate(298)" opacity="0.05"><g transform="translate(0,0)"><path d="M 23.0 0.0 L 22.9 -0.0 L 22.6 -0.0 L 22.2 -0.1 L 21.5 -0.2 L 20.7 -0.4 L 19.8 -0.7 L 18.7 -1.1 L 17.5 -1.5 L 16.3 -2.2 L 14.9 -2.9 L 13.6 -3.7 L 12.2 -4.7 L 10.8 -5.7 L 9.4 -6.9 L 8.1 -8.1 L 6.9 -9.4 L 5.7 -10.8 L 4.7 -12.2 L 3.7 -13.6 L 2.9 -14.9 L 2.2 -16.3 L 1.5 -17.5 L 1.1 -18.7 L 0.7 -19.8 L 0.4 -20.7 L 0.2 -21.5 L 0.1 -22.2 L 0.0 -22.6 L 0.0 -22.9 L 0.0 -23.0 L -0.0 -22.9 L -0.0 -22.6 L -0.1 -22.2 L -0.2 -21.5 L -0.4 -20.7 L -0.7 -19.8 L -1.1 -18.7 L -1.5 -17.5 L -2.2 -16.3 L -2.9 -14.9 L -3.7 -13.6 L -4.7 -12.2 L -5.7 -10.8 L -6.9 -9.4 L -8.1 -8.1 L -9.4 -6.9 L -10.8 -5.7 L -12.2 -4.7 L -13.6 -3.7 L -14.9 -2.9 L -16.3 -2.2 L -17.5 -1.5 L -18.7 -1.1 L -19.8 -0.7 L -20.7 -0.4 L -21.5 -0.2 L -22.2 -0.1 L -22.6 -0.0 L -22.9 -0.0 L -23.0 -0.0 L -22.9 0.0 L -22.6 0.0 L -22.2 0.1 L -21.5 0.2 L -20.7 0.4 L -19.8 0.7 L -18.7 1.1 L -17.5 1.5 L -16.3 2.2 L -14.9 2.9 L -13.6 3.7 L -12.2 4.7 L -10.8 5.7 L -9.4 6.9 L -8.1 8.1 L -6.9 9.4 L -5.7 10.8 L -4.7 12.2 L -3.7 13.6 L -2.9 14.9 L -2.2 16.3 L -1.5 17.5 L -1.1 18.7 L -0.7 19.8 L -0.4 20.7 L -0.2 21.5 L -0.1 22.2 L -0.0 22.6 L -0.0 22.9 L -0.0 23.0 L 0.0 22.9 L 0.0 22.6 L 0.1 22.2 L 0.2 21.5 L 0.4 20.7 L 0.7 19.8 L 1.1 18.7 L 1.5 17.5 L 2.2 16.3 L 2.9 14.9 L 3.7 13.6 L 4.7 12.2 L 5.7 10.8 L 6.9 9.4 L 8.1 8.1 L 9.4 6.9 L 10.8 5.7 L 12.2 4.7 L 13.6 3.7 L 14.9 2.9 L 16.3 2.2 L 17.5 1.5 L 18.7 1.1 L 19.8 0.7 L 20.7 0.4 L 21.5 0.2 L 22.2 0.1 L 22.6 0.0 L 22.9 0.0 L 23.0 0.0 Z" fill="#2A2A2A"/></g></g><g transform="translate(495,945) rotate(345)" opacity="0.05"><g transform="translate(0,0)"><path d="M 23.0 0.0 L 22.9 -0.0 L 22.6 -0.0 L 22.2 -0.1 L 21.5 -0.2 L 20.7 -0.4 L 19.8 -0.7 L 18.7 -1.1 L 17.5 -1.5 L 16.3 -2.2 L 14.9 -2.9 L 13.6 -3.7 L 12.2 -4.7 L 10.8 -5.7 L 9.4 -6.9 L 8.1 -8.1 L 6.9 -9.4 L 5.7 -10.8 L 4.7 -12.2 L 3.7 -13.6 L 2.9 -14.9 L 2.2 -16.3 L 1.5 -17.5 L 1.1 -18.7 L 0.7 -19.8 L 0.4 -20.7 L 0.2 -21.5 L 0.1 -22.2 L 0.0 -22.6 L 0.0 -22.9 L 0.0 -23.0 L -0.0 -22.9 L -0.0 -22.6 L -0.1 -22.2 L -0.2 -21.5 L -0.4 -20.7 L -0.7 -19.8 L -1.1 -18.7 L -1.5 -17.5 L -2.2 -16.3 L -2.9 -14.9 L -3.7 -13.6 L -4.7 -12.2 L -5.7 -10.8 L -6.9 -9.4 L -8.1 -8.1 L -9.4 -6.9 L -10.8 -5.7 L -12.2 -4.7 L -13.6 -3.7 L -14.9 -2.9 L -16.3 -2.2 L -17.5 -1.5 L -18.7 -1.1 L -19.8 -0.7 L -20.7 -0.4 L -21.5 -0.2 L -22.2 -0.1 L -22.6 -0.0 L -22.9 -0.0 L -23.0 -0.0 L -22.9 0.0 L -22.6 0.0 L -22.2 0.1 L -21.5 0.2 L -20.7 0.4 L -19.8 0.7 L -18.7 1.1 L -17.5 1.5 L -16.3 2.2 L -14.9 2.9 L -13.6 3.7 L -12.2 4.7 L -10.8 5.7 L -9.4 6.9 L -8.1 8.1 L -6.9 9.4 L -5.7 10.8 L -4.7 12.2 L -3.7 13.6 L -2.9 14.9 L -2.2 16.3 L -1.5 17.5 L -1.1 18.7 L -0.7 19.8 L -0.4 20.7 L -0.2 21.5 L -0.1 22.2 L -0.0 22.6 L -0.0 22.9 L -0.0 23.0 L 0.0 22.9 L 0.0 22.6 L 0.1 22.2 L 0.2 21.5 L 0.4 20.7 L 0.7 19.8 L 1.1 18.7 L 1.5 17.5 L 2.2 16.3 L 2.9 14.9 L 3.7 13.6 L 4.7 12.2 L 5.7 10.8 L 6.9 9.4 L 8.1 8.1 L 9.4 6.9 L 10.8 5.7 L 12.2 4.7 L 13.6 3.7 L 14.9 2.9 L 16.3 2.2 L 17.5 1.5 L 18.7 1.1 L 19.8 0.7 L 20.7 0.4 L 21.5 0.2 L 22.2 0.1 L 22.6 0.0 L 22.9 0.0 L 23.0 0.0 Z" fill="#2A2A2A"/></g></g><g transform="translate(668,1256) rotate(32)" opacity="0.05"><g transform="translate(0,0)"><path d="M 23.0 0.0 L 22.9 -0.0 L 22.6 -0.0 L 22.2 -0.1 L 21.5 -0.2 L 20.7 -0.4 L 19.8 -0.7 L 18.7 -1.1 L 17.5 -1.5 L 16.3 -2.2 L 14.9 -2.9 L 13.6 -3.7 L 12.2 -4.7 L 10.8 -5.7 L 9.4 -6.9 L 8.1 -8.1 L 6.9 -9.4 L 5.7 -10.8 L 4.7 -12.2 L 3.7 -13.6 L 2.9 -14.9 L 2.2 -16.3 L 1.5 -17.5 L 1.1 -18.7 L 0.7 -19.8 L 0.4 -20.7 L 0.2 -21.5 L 0.1 -22.2 L 0.0 -22.6 L 0.0 -22.9 L 0.0 -23.0 L -0.0 -22.9 L -0.0 -22.6 L -0.1 -22.2 L -0.2 -21.5 L -0.4 -20.7 L -0.7 -19.8 L -1.1 -18.7 L -1.5 -17.5 L -2.2 -16.3 L -2.9 -14.9 L -3.7 -13.6 L -4.7 -12.2 L -5.7 -10.8 L -6.9 -9.4 L -8.1 -8.1 L -9.4 -6.9 L -10.8 -5.7 L -12.2 -4.7 L -13.6 -3.7 L -14.9 -2.9 L -16.3 -2.2 L -17.5 -1.5 L -18.7 -1.1 L -19.8 -0.7 L -20.7 -0.4 L -21.5 -0.2 L -22.2 -0.1 L -22.6 -0.0 L -22.9 -0.0 L -23.0 -0.0 L -22.9 0.0 L -22.6 0.0 L -22.2 0.1 L -21.5 0.2 L -20.7 0.4 L -19.8 0.7 L -18.7 1.1 L -17.5 1.5 L -16.3 2.2 L -14.9 2.9 L -13.6 3.7 L -12.2 4.7 L -10.8 5.7 L -9.4 6.9 L -8.1 8.1 L -6.9 9.4 L -5.7 10.8 L -4.7 12.2 L -3.7 13.6 L -2.9 14.9 L -2.2 16.3 L -1.5 17.5 L -1.1 18.7 L -0.7 19.8 L -0.4 20.7 L -0.2 21.5 L -0.1 22.2 L -0.0 22.6 L -0.0 22.9 L -0.0 23.0 L 0.0 22.9 L 0.0 22.6 L 0.1 22.2 L 0.2 21.5 L 0.4 20.7 L 0.7 19.8 L 1.1 18.7 L 1.5 17.5 L 2.2 16.3 L 2.9 14.9 L 3.7 13.6 L 4.7 12.2 L 5.7 10.8 L 6.9 9.4 L 8.1 8.1 L 9.4 6.9 L 10.8 5.7 L 12.2 4.7 L 13.6 3.7 L 14.9 2.9 L 16.3 2.2 L 17.5 1.5 L 18.7 1.1 L 19.8 0.7 L 20.7 0.4 L 21.5 0.2 L 22.2 0.1 L 22.6 0.0 L 22.9 0.0 L 23.0 0.0 Z" fill="#2A2A2A"/></g></g><g transform="translate(841,1567) rotate(79)" opacity="0.05"><g transform="translate(0,0)"><path d="M 23.0 0.0 L 22.9 -0.0 L 22.6 -0.0 L 22.2 -0.1 L 21.5 -0.2 L 20.7 -0.4 L 19.8 -0.7 L 18.7 -1.1 L 17.5 -1.5 L 16.3 -2.2 L 14.9 -2.9 L 13.6 -3.7 L 12.2 -4.7 L 10.8 -5.7 L 9.4 -6.9 L 8.1 -8.1 L 6.9 -9.4 L 5.7 -10.8 L 4.7 -12.2 L 3.7 -13.6 L 2.9 -14.9 L 2.2 -16.3 L 1.5 -17.5 L 1.1 -18.7 L 0.7 -19.8 L 0.4 -20.7 L 0.2 -21.5 L 0.1 -22.2 L 0.0 -22.6 L 0.0 -22.9 L 0.0 -23.0 L -0.0 -22.9 L -0.0 -22.6 L -0.1 -22.2 L -0.2 -21.5 L -0.4 -20.7 L -0.7 -19.8 L -1.1 -18.7 L -1.5 -17.5 L -2.2 -16.3 L -2.9 -14.9 L -3.7 -13.6 L -4.7 -12.2 L -5.7 -10.8 L -6.9 -9.4 L -8.1 -8.1 L -9.4 -6.9 L -10.8 -5.7 L -12.2 -4.7 L -13.6 -3.7 L -14.9 -2.9 L -16.3 -2.2 L -17.5 -1.5 L -18.7 -1.1 L -19.8 -0.7 L -20.7 -0.4 L -21.5 -0.2 L -22.2 -0.1 L -22.6 -0.0 L -22.9 -0.0 L -23.0 -0.0 L -22.9 0.0 L -22.6 0.0 L -22.2 0.1 L -21.5 0.2 L -20.7 0.4 L -19.8 0.7 L -18.7 1.1 L -17.5 1.5 L -16.3 2.2 L -14.9 2.9 L -13.6 3.7 L -12.2 4.7 L -10.8 5.7 L -9.4 6.9 L -8.1 8.1 L -6.9 9.4 L -5.7 10.8 L -4.7 12.2 L -3.7 13.6 L -2.9 14.9 L -2.2 16.3 L -1.5 17.5 L -1.1 18.7 L -0.7 19.8 L -0.4 20.7 L -0.2 21.5 L -0.1 22.2 L -0.0 22.6 L -0.0 22.9 L -0.0 23.0 L 0.0 22.9 L 0.0 22.6 L 0.1 22.2 L 0.2 21.5 L 0.4 20.7 L 0.7 19.8 L 1.1 18.7 L 1.5 17.5 L 2.2 16.3 L 2.9 14.9 L 3.7 13.6 L 4.7 12.2 L 5.7 10.8 L 6.9 9.4 L 8.1 8.1 L 9.4 6.9 L 10.8 5.7 L 12.2 4.7 L 13.6 3.7 L 14.9 2.9 L 16.3 2.2 L 17.5 1.5 L 18.7 1.1 L 19.8 0.7 L 20.7 0.4 L 21.5 0.2 L 22.2 0.1 L 22.6 0.0 L 22.9 0.0 L 23.0 0.0 Z" fill="#2A2A2A"/></g></g><g transform="translate(1014,1878) rotate(126)" opacity="0.05"><g transform="translate(0,0)"><path d="M 23.0 0.0 L 22.9 -0.0 L 22.6 -0.0 L 22.2 -0.1 L 21.5 -0.2 L 20.7 -0.4 L 19.8 -0.7 L 18.7 -1.1 L 17.5 -1.5 L 16.3 -2.2 L 14.9 -2.9 L 13.6 -3.7 L 12.2 -4.7 L 10.8 -5.7 L 9.4 -6.9 L 8.1 -8.1 L 6.9 -9.4 L 5.7 -10.8 L 4.7 -12.2 L 3.7 -13.6 L 2.9 -14.9 L 2.2 -16.3 L 1.5 -17.5 L 1.1 -18.7 L 0.7 -19.8 L 0.4 -20.7 L 0.2 -21.5 L 0.1 -22.2 L 0.0 -22.6 L 0.0 -22.9 L 0.0 -23.0 L -0.0 -22.9 L -0.0 -22.6 L -0.1 -22.2 L -0.2 -21.5 L -0.4 -20.7 L -0.7 -19.8 L -1.1 -18.7 L -1.5 -17.5 L -2.2 -16.3 L -2.9 -14.9 L -3.7 -13.6 L -4.7 -12.2 L -5.7 -10.8 L -6.9 -9.4 L -8.1 -8.1 L -9.4 -6.9 L -10.8 -5.7 L -12.2 -4.7 L -13.6 -3.7 L -14.9 -2.9 L -16.3 -2.2 L -17.5 -1.5 L -18.7 -1.1 L -19.8 -0.7 L -20.7 -0.4 L -21.5 -0.2 L -22.2 -0.1 L -22.6 -0.0 L -22.9 -0.0 L -23.0 -0.0 L -22.9 0.0 L -22.6 0.0 L -22.2 0.1 L -21.5 0.2 L -20.7 0.4 L -19.8 0.7 L -18.7 1.1 L -17.5 1.5 L -16.3 2.2 L -14.9 2.9 L -13.6 3.7 L -12.2 4.7 L -10.8 5.7 L -9.4 6.9 L -8.1 8.1 L -6.9 9.4 L -5.7 10.8 L -4.7 12.2 L -3.7 13.6 L -2.9 14.9 L -2.2 16.3 L -1.5 17.5 L -1.1 18.7 L -0.7 19.8 L -0.4 20.7 L -0.2 21.5 L -0.1 22.2 L -0.0 22.6 L -0.0 22.9 L -0.0 23.0 L 0.0 22.9 L 0.0 22.6 L 0.1 22.2 L 0.2 21.5 L 0.4 20.7 L 0.7 19.8 L 1.1 18.7 L 1.5 17.5 L 2.2 16.3 L 2.9 14.9 L 3.7 13.6 L 4.7 12.2 L 5.7 10.8 L 6.9 9.4 L 8.1 8.1 L 9.4 6.9 L 10.8 5.7 L 12.2 4.7 L 13.6 3.7 L 14.9 2.9 L 16.3 2.2 L 17.5 1.5 L 18.7 1.1 L 19.8 0.7 L 20.7 0.4 L 21.5 0.2 L 22.2 0.1 L 22.6 0.0 L 22.9 0.0 L 23.0 0.0 Z" fill="#2A2A2A"/></g></g><g transform="translate(107,269) rotate(173)" opacity="0.05"><g transform="translate(0,0)"><path d="M 23.0 0.0 L 22.9 -0.0 L 22.6 -0.0 L 22.2 -0.1 L 21.5 -0.2 L 20.7 -0.4 L 19.8 -0.7 L 18.7 -1.1 L 17.5 -1.5 L 16.3 -2.2 L 14.9 -2.9 L 13.6 -3.7 L 12.2 -4.7 L 10.8 -5.7 L 9.4 -6.9 L 8.1 -8.1 L 6.9 -9.4 L 5.7 -10.8 L 4.7 -12.2 L 3.7 -13.6 L 2.9 -14.9 L 2.2 -16.3 L 1.5 -17.5 L 1.1 -18.7 L 0.7 -19.8 L 0.4 -20.7 L 0.2 -21.5 L 0.1 -22.2 L 0.0 -22.6 L 0.0 -22.9 L 0.0 -23.0 L -0.0 -22.9 L -0.0 -22.6 L -0.1 -22.2 L -0.2 -21.5 L -0.4 -20.7 L -0.7 -19.8 L -1.1 -18.7 L -1.5 -17.5 L -2.2 -16.3 L -2.9 -14.9 L -3.7 -13.6 L -4.7 -12.2 L -5.7 -10.8 L -6.9 -9.4 L -8.1 -8.1 L -9.4 -6.9 L -10.8 -5.7 L -12.2 -4.7 L -13.6 -3.7 L -14.9 -2.9 L -16.3 -2.2 L -17.5 -1.5 L -18.7 -1.1 L -19.8 -0.7 L -20.7 -0.4 L -21.5 -0.2 L -22.2 -0.1 L -22.6 -0.0 L -22.9 -0.0 L -23.0 -0.0 L -22.9 0.0 L -22.6 0.0 L -22.2 0.1 L -21.5 0.2 L -20.7 0.4 L -19.8 0.7 L -18.7 1.1 L -17.5 1.5 L -16.3 2.2 L -14.9 2.9 L -13.6 3.7 L -12.2 4.7 L -10.8 5.7 L -9.4 6.9 L -8.1 8.1 L -6.9 9.4 L -5.7 10.8 L -4.7 12.2 L -3.7 13.6 L -2.9 14.9 L -2.2 16.3 L -1.5 17.5 L -1.1 18.7 L -0.7 19.8 L -0.4 20.7 L -0.2 21.5 L -0.1 22.2 L -0.0 22.6 L -0.0 22.9 L -0.0 23.0 L 0.0 22.9 L 0.0 22.6 L 0.1 22.2 L 0.2 21.5 L 0.4 20.7 L 0.7 19.8 L 1.1 18.7 L 1.5 17.5 L 2.2 16.3 L 2.9 14.9 L 3.7 13.6 L 4.7 12.2 L 5.7 10.8 L 6.9 9.4 L 8.1 8.1 L 9.4 6.9 L 10.8 5.7 L 12.2 4.7 L 13.6 3.7 L 14.9 2.9 L 16.3 2.2 L 17.5 1.5 L 18.7 1.1 L 19.8 0.7 L 20.7 0.4 L 21.5 0.2 L 22.2 0.1 L 22.6 0.0 L 22.9 0.0 L 23.0 0.0 Z" fill="#2A2A2A"/></g></g><g transform="translate(280,580) rotate(220)" opacity="0.05"><g transform="translate(0,0)"><path d="M 23.0 0.0 L 22.9 -0.0 L 22.6 -0.0 L 22.2 -0.1 L 21.5 -0.2 L 20.7 -0.4 L 19.8 -0.7 L 18.7 -1.1 L 17.5 -1.5 L 16.3 -2.2 L 14.9 -2.9 L 13.6 -3.7 L 12.2 -4.7 L 10.8 -5.7 L 9.4 -6.9 L 8.1 -8.1 L 6.9 -9.4 L 5.7 -10.8 L 4.7 -12.2 L 3.7 -13.6 L 2.9 -14.9 L 2.2 -16.3 L 1.5 -17.5 L 1.1 -18.7 L 0.7 -19.8 L 0.4 -20.7 L 0.2 -21.5 L 0.1 -22.2 L 0.0 -22.6 L 0.0 -22.9 L 0.0 -23.0 L -0.0 -22.9 L -0.0 -22.6 L -0.1 -22.2 L -0.2 -21.5 L -0.4 -20.7 L -0.7 -19.8 L -1.1 -18.7 L -1.5 -17.5 L -2.2 -16.3 L -2.9 -14.9 L -3.7 -13.6 L -4.7 -12.2 L -5.7 -10.8 L -6.9 -9.4 L -8.1 -8.1 L -9.4 -6.9 L -10.8 -5.7 L -12.2 -4.7 L -13.6 -3.7 L -14.9 -2.9 L -16.3 -2.2 L -17.5 -1.5 L -18.7 -1.1 L -19.8 -0.7 L -20.7 -0.4 L -21.5 -0.2 L -22.2 -0.1 L -22.6 -0.0 L -22.9 -0.0 L -23.0 -0.0 L -22.9 0.0 L -22.6 0.0 L -22.2 0.1 L -21.5 0.2 L -20.7 0.4 L -19.8 0.7 L -18.7 1.1 L -17.5 1.5 L -16.3 2.2 L -14.9 2.9 L -13.6 3.7 L -12.2 4.7 L -10.8 5.7 L -9.4 6.9 L -8.1 8.1 L -6.9 9.4 L -5.7 10.8 L -4.7 12.2 L -3.7 13.6 L -2.9 14.9 L -2.2 16.3 L -1.5 17.5 L -1.1 18.7 L -0.7 19.8 L -0.4 20.7 L -0.2 21.5 L -0.1 22.2 L -0.0 22.6 L -0.0 22.9 L -0.0 23.0 L 0.0 22.9 L 0.0 22.6 L 0.1 22.2 L 0.2 21.5 L 0.4 20.7 L 0.7 19.8 L 1.1 18.7 L 1.5 17.5 L 2.2 16.3 L 2.9 14.9 L 3.7 13.6 L 4.7 12.2 L 5.7 10.8 L 6.9 9.4 L 8.1 8.1 L 9.4 6.9 L 10.8 5.7 L 12.2 4.7 L 13.6 3.7 L 14.9 2.9 L 16.3 2.2 L 17.5 1.5 L 18.7 1.1 L 19.8 0.7 L 20.7 0.4 L 21.5 0.2 L 22.2 0.1 L 22.6 0.0 L 22.9 0.0 L 23.0 0.0 Z" fill="#2A2A2A"/></g></g><g transform="translate(453,891) rotate(267)" opacity="0.05"><g transform="translate(0,0)"><path d="M 23.0 0.0 L 22.9 -0.0 L 22.6 -0.0 L 22.2 -0.1 L 21.5 -0.2 L 20.7 -0.4 L 19.8 -0.7 L 18.7 -1.1 L 17.5 -1.5 L 16.3 -2.2 L 14.9 -2.9 L 13.6 -3.7 L 12.2 -4.7 L 10.8 -5.7 L 9.4 -6.9 L 8.1 -8.1 L 6.9 -9.4 L 5.7 -10.8 L 4.7 -12.2 L 3.7 -13.6 L 2.9 -14.9 L 2.2 -16.3 L 1.5 -17.5 L 1.1 -18.7 L 0.7 -19.8 L 0.4 -20.7 L 0.2 -21.5 L 0.1 -22.2 L 0.0 -22.6 L 0.0 -22.9 L 0.0 -23.0 L -0.0 -22.9 L -0.0 -22.6 L -0.1 -22.2 L -0.2 -21.5 L -0.4 -20.7 L -0.7 -19.8 L -1.1 -18.7 L -1.5 -17.5 L -2.2 -16.3 L -2.9 -14.9 L -3.7 -13.6 L -4.7 -12.2 L -5.7 -10.8 L -6.9 -9.4 L -8.1 -8.1 L -9.4 -6.9 L -10.8 -5.7 L -12.2 -4.7 L -13.6 -3.7 L -14.9 -2.9 L -16.3 -2.2 L -17.5 -1.5 L -18.7 -1.1 L -19.8 -0.7 L -20.7 -0.4 L -21.5 -0.2 L -22.2 -0.1 L -22.6 -0.0 L -22.9 -0.0 L -23.0 -0.0 L -22.9 0.0 L -22.6 0.0 L -22.2 0.1 L -21.5 0.2 L -20.7 0.4 L -19.8 0.7 L -18.7 1.1 L -17.5 1.5 L -16.3 2.2 L -14.9 2.9 L -13.6 3.7 L -12.2 4.7 L -10.8 5.7 L -9.4 6.9 L -8.1 8.1 L -6.9 9.4 L -5.7 10.8 L -4.7 12.2 L -3.7 13.6 L -2.9 14.9 L -2.2 16.3 L -1.5 17.5 L -1.1 18.7 L -0.7 19.8 L -0.4 20.7 L -0.2 21.5 L -0.1 22.2 L -0.0 22.6 L -0.0 22.9 L -0.0 23.0 L 0.0 22.9 L 0.0 22.6 L 0.1 22.2 L 0.2 21.5 L 0.4 20.7 L 0.7 19.8 L 1.1 18.7 L 1.5 17.5 L 2.2 16.3 L 2.9 14.9 L 3.7 13.6 L 4.7 12.2 L 5.7 10.8 L 6.9 9.4 L 8.1 8.1 L 9.4 6.9 L 10.8 5.7 L 12.2 4.7 L 13.6 3.7 L 14.9 2.9 L 16.3 2.2 L 17.5 1.5 L 18.7 1.1 L 19.8 0.7 L 20.7 0.4 L 21.5 0.2 L 22.2 0.1 L 22.6 0.0 L 22.9 0.0 L 23.0 0.0 Z" fill="#2A2A2A"/></g></g><g transform="translate(626,1202) rotate(314)" opacity="0.05"><g transform="translate(0,0)"><path d="M 23.0 0.0 L 22.9 -0.0 L 22.6 -0.0 L 22.2 -0.1 L 21.5 -0.2 L 20.7 -0.4 L 19.8 -0.7 L 18.7 -1.1 L 17.5 -1.5 L 16.3 -2.2 L 14.9 -2.9 L 13.6 -3.7 L 12.2 -4.7 L 10.8 -5.7 L 9.4 -6.9 L 8.1 -8.1 L 6.9 -9.4 L 5.7 -10.8 L 4.7 -12.2 L 3.7 -13.6 L 2.9 -14.9 L 2.2 -16.3 L 1.5 -17.5 L 1.1 -18.7 L 0.7 -19.8 L 0.4 -20.7 L 0.2 -21.5 L 0.1 -22.2 L 0.0 -22.6 L 0.0 -22.9 L 0.0 -23.0 L -0.0 -22.9 L -0.0 -22.6 L -0.1 -22.2 L -0.2 -21.5 L -0.4 -20.7 L -0.7 -19.8 L -1.1 -18.7 L -1.5 -17.5 L -2.2 -16.3 L -2.9 -14.9 L -3.7 -13.6 L -4.7 -12.2 L -5.7 -10.8 L -6.9 -9.4 L -8.1 -8.1 L -9.4 -6.9 L -10.8 -5.7 L -12.2 -4.7 L -13.6 -3.7 L -14.9 -2.9 L -16.3 -2.2 L -17.5 -1.5 L -18.7 -1.1 L -19.8 -0.7 L -20.7 -0.4 L -21.5 -0.2 L -22.2 -0.1 L -22.6 -0.0 L -22.9 -0.0 L -23.0 -0.0 L -22.9 0.0 L -22.6 0.0 L -22.2 0.1 L -21.5 0.2 L -20.7 0.4 L -19.8 0.7 L -18.7 1.1 L -17.5 1.5 L -16.3 2.2 L -14.9 2.9 L -13.6 3.7 L -12.2 4.7 L -10.8 5.7 L -9.4 6.9 L -8.1 8.1 L -6.9 9.4 L -5.7 10.8 L -4.7 12.2 L -3.7 13.6 L -2.9 14.9 L -2.2 16.3 L -1.5 17.5 L -1.1 18.7 L -0.7 19.8 L -0.4 20.7 L -0.2 21.5 L -0.1 22.2 L -0.0 22.6 L -0.0 22.9 L -0.0 23.0 L 0.0 22.9 L 0.0 22.6 L 0.1 22.2 L 0.2 21.5 L 0.4 20.7 L 0.7 19.8 L 1.1 18.7 L 1.5 17.5 L 2.2 16.3 L 2.9 14.9 L 3.7 13.6 L 4.7 12.2 L 5.7 10.8 L 6.9 9.4 L 8.1 8.1 L 9.4 6.9 L 10.8 5.7 L 12.2 4.7 L 13.6 3.7 L 14.9 2.9 L 16.3 2.2 L 17.5 1.5 L 18.7 1.1 L 19.8 0.7 L 20.7 0.4 L 21.5 0.2 L 22.2 0.1 L 22.6 0.0 L 22.9 0.0 L 23.0 0.0 Z" fill="#2A2A2A"/></g></g><g transform="translate(799,1513) rotate(1)" opacity="0.05"><g transform="translate(0,0)"><path d="M 23.0 0.0 L 22.9 -0.0 L 22.6 -0.0 L 22.2 -0.1 L 21.5 -0.2 L 20.7 -0.4 L 19.8 -0.7 L 18.7 -1.1 L 17.5 -1.5 L 16.3 -2.2 L 14.9 -2.9 L 13.6 -3.7 L 12.2 -4.7 L 10.8 -5.7 L 9.4 -6.9 L 8.1 -8.1 L 6.9 -9.4 L 5.7 -10.8 L 4.7 -12.2 L 3.7 -13.6 L 2.9 -14.9 L 2.2 -16.3 L 1.5 -17.5 L 1.1 -18.7 L 0.7 -19.8 L 0.4 -20.7 L 0.2 -21.5 L 0.1 -22.2 L 0.0 -22.6 L 0.0 -22.9 L 0.0 -23.0 L -0.0 -22.9 L -0.0 -22.6 L -0.1 -22.2 L -0.2 -21.5 L -0.4 -20.7 L -0.7 -19.8 L -1.1 -18.7 L -1.5 -17.5 L -2.2 -16.3 L -2.9 -14.9 L -3.7 -13.6 L -4.7 -12.2 L -5.7 -10.8 L -6.9 -9.4 L -8.1 -8.1 L -9.4 -6.9 L -10.8 -5.7 L -12.2 -4.7 L -13.6 -3.7 L -14.9 -2.9 L -16.3 -2.2 L -17.5 -1.5 L -18.7 -1.1 L -19.8 -0.7 L -20.7 -0.4 L -21.5 -0.2 L -22.2 -0.1 L -22.6 -0.0 L -22.9 -0.0 L -23.0 -0.0 L -22.9 0.0 L -22.6 0.0 L -22.2 0.1 L -21.5 0.2 L -20.7 0.4 L -19.8 0.7 L -18.7 1.1 L -17.5 1.5 L -16.3 2.2 L -14.9 2.9 L -13.6 3.7 L -12.2 4.7 L -10.8 5.7 L -9.4 6.9 L -8.1 8.1 L -6.9 9.4 L -5.7 10.8 L -4.7 12.2 L -3.7 13.6 L -2.9 14.9 L -2.2 16.3 L -1.5 17.5 L -1.1 18.7 L -0.7 19.8 L -0.4 20.7 L -0.2 21.5 L -0.1 22.2 L -0.0 22.6 L -0.0 22.9 L -0.0 23.0 L 0.0 22.9 L 0.0 22.6 L 0.1 22.2 L 0.2 21.5 L 0.4 20.7 L 0.7 19.8 L 1.1 18.7 L 1.5 17.5 L 2.2 16.3 L 2.9 14.9 L 3.7 13.6 L 4.7 12.2 L 5.7 10.8 L 6.9 9.4 L 8.1 8.1 L 9.4 6.9 L 10.8 5.7 L 12.2 4.7 L 13.6 3.7 L 14.9 2.9 L 16.3 2.2 L 17.5 1.5 L 18.7 1.1 L 19.8 0.7 L 20.7 0.4 L 21.5 0.2 L 22.2 0.1 L 22.6 0.0 L 22.9 0.0 L 23.0 0.0 Z" fill="#2A2A2A"/></g></g><g transform="translate(972,1824) rotate(48)" opacity="0.05"><g transform="translate(0,0)"><path d="M 23.0 0.0 L 22.9 -0.0 L 22.6 -0.0 L 22.2 -0.1 L 21.5 -0.2 L 20.7 -0.4 L 19.8 -0.7 L 18.7 -1.1 L 17.5 -1.5 L 16.3 -2.2 L 14.9 -2.9 L 13.6 -3.7 L 12.2 -4.7 L 10.8 -5.7 L 9.4 -6.9 L 8.1 -8.1 L 6.9 -9.4 L 5.7 -10.8 L 4.7 -12.2 L 3.7 -13.6 L 2.9 -14.9 L 2.2 -16.3 L 1.5 -17.5 L 1.1 -18.7 L 0.7 -19.8 L 0.4 -20.7 L 0.2 -21.5 L 0.1 -22.2 L 0.0 -22.6 L 0.0 -22.9 L 0.0 -23.0 L -0.0 -22.9 L -0.0 -22.6 L -0.1 -22.2 L -0.2 -21.5 L -0.4 -20.7 L -0.7 -19.8 L -1.1 -18.7 L -1.5 -17.5 L -2.2 -16.3 L -2.9 -14.9 L -3.7 -13.6 L -4.7 -12.2 L -5.7 -10.8 L -6.9 -9.4 L -8.1 -8.1 L -9.4 -6.9 L -10.8 -5.7 L -12.2 -4.7 L -13.6 -3.7 L -14.9 -2.9 L -16.3 -2.2 L -17.5 -1.5 L -18.7 -1.1 L -19.8 -0.7 L -20.7 -0.4 L -21.5 -0.2 L -22.2 -0.1 L -22.6 -0.0 L -22.9 -0.0 L -23.0 -0.0 L -22.9 0.0 L -22.6 0.0 L -22.2 0.1 L -21.5 0.2 L -20.7 0.4 L -19.8 0.7 L -18.7 1.1 L -17.5 1.5 L -16.3 2.2 L -14.9 2.9 L -13.6 3.7 L -12.2 4.7 L -10.8 5.7 L -9.4 6.9 L -8.1 8.1 L -6.9 9.4 L -5.7 10.8 L -4.7 12.2 L -3.7 13.6 L -2.9 14.9 L -2.2 16.3 L -1.5 17.5 L -1.1 18.7 L -0.7 19.8 L -0.4 20.7 L -0.2 21.5 L -0.1 22.2 L -0.0 22.6 L -0.0 22.9 L -0.0 23.0 L 0.0 22.9 L 0.0 22.6 L 0.1 22.2 L 0.2 21.5 L 0.4 20.7 L 0.7 19.8 L 1.1 18.7 L 1.5 17.5 L 2.2 16.3 L 2.9 14.9 L 3.7 13.6 L 4.7 12.2 L 5.7 10.8 L 6.9 9.4 L 8.1 8.1 L 9.4 6.9 L 10.8 5.7 L 12.2 4.7 L 13.6 3.7 L 14.9 2.9 L 16.3 2.2 L 17.5 1.5 L 18.7 1.1 L 19.8 0.7 L 20.7 0.4 L 21.5 0.2 L 22.2 0.1 L 22.6 0.0 L 22.9 0.0 L 23.0 0.0 Z" fill="#2A2A2A"/></g></g><g transform="translate(65,215) rotate(95)" opacity="0.05"><g transform="translate(0,0)"><path d="M 23.0 0.0 L 22.9 -0.0 L 22.6 -0.0 L 22.2 -0.1 L 21.5 -0.2 L 20.7 -0.4 L 19.8 -0.7 L 18.7 -1.1 L 17.5 -1.5 L 16.3 -2.2 L 14.9 -2.9 L 13.6 -3.7 L 12.2 -4.7 L 10.8 -5.7 L 9.4 -6.9 L 8.1 -8.1 L 6.9 -9.4 L 5.7 -10.8 L 4.7 -12.2 L 3.7 -13.6 L 2.9 -14.9 L 2.2 -16.3 L 1.5 -17.5 L 1.1 -18.7 L 0.7 -19.8 L 0.4 -20.7 L 0.2 -21.5 L 0.1 -22.2 L 0.0 -22.6 L 0.0 -22.9 L 0.0 -23.0 L -0.0 -22.9 L -0.0 -22.6 L -0.1 -22.2 L -0.2 -21.5 L -0.4 -20.7 L -0.7 -19.8 L -1.1 -18.7 L -1.5 -17.5 L -2.2 -16.3 L -2.9 -14.9 L -3.7 -13.6 L -4.7 -12.2 L -5.7 -10.8 L -6.9 -9.4 L -8.1 -8.1 L -9.4 -6.9 L -10.8 -5.7 L -12.2 -4.7 L -13.6 -3.7 L -14.9 -2.9 L -16.3 -2.2 L -17.5 -1.5 L -18.7 -1.1 L -19.8 -0.7 L -20.7 -0.4 L -21.5 -0.2 L -22.2 -0.1 L -22.6 -0.0 L -22.9 -0.0 L -23.0 -0.0 L -22.9 0.0 L -22.6 0.0 L -22.2 0.1 L -21.5 0.2 L -20.7 0.4 L -19.8 0.7 L -18.7 1.1 L -17.5 1.5 L -16.3 2.2 L -14.9 2.9 L -13.6 3.7 L -12.2 4.7 L -10.8 5.7 L -9.4 6.9 L -8.1 8.1 L -6.9 9.4 L -5.7 10.8 L -4.7 12.2 L -3.7 13.6 L -2.9 14.9 L -2.2 16.3 L -1.5 17.5 L -1.1 18.7 L -0.7 19.8 L -0.4 20.7 L -0.2 21.5 L -0.1 22.2 L -0.0 22.6 L -0.0 22.9 L -0.0 23.0 L 0.0 22.9 L 0.0 22.6 L 0.1 22.2 L 0.2 21.5 L 0.4 20.7 L 0.7 19.8 L 1.1 18.7 L 1.5 17.5 L 2.2 16.3 L 2.9 14.9 L 3.7 13.6 L 4.7 12.2 L 5.7 10.8 L 6.9 9.4 L 8.1 8.1 L 9.4 6.9 L 10.8 5.7 L 12.2 4.7 L 13.6 3.7 L 14.9 2.9 L 16.3 2.2 L 17.5 1.5 L 18.7 1.1 L 19.8 0.7 L 20.7 0.4 L 21.5 0.2 L 22.2 0.1 L 22.6 0.0 L 22.9 0.0 L 23.0 0.0 Z" fill="#2A2A2A"/></g></g>

  <!-- Header (top safe zone) -->
  <text x="540" y="150" text-anchor="middle" font-family="'Georgia', 'Noto Serif', serif" font-size="40" fill="#2F3A56" letter-spacing="6" font-style="italic">Ọ́nwá Ánọ̄ · The Fourth Month</text>
  <text x="540" y="206" text-anchor="middle" font-family="'Segoe UI', 'Noto Sans', Arial, sans-serif" font-size="25" fill="#9c5a33" letter-spacing="12" font-weight="800">FOUR ANO · FORM</text>

  <!-- Card body (glossy) -->
  <g filter="url(#cardShadow)">
    <rect x="80" y="286" width="920" height="1348" rx="42" fill="#fffcf3"/>
    <rect x="92" y="298" width="896" height="1324" rx="32" fill="none" stroke="#c79a18" stroke-width="10"/>
    <rect x="106" y="312" width="868" height="1296" rx="24" fill="none" stroke="#D9A441" stroke-width="2"/>
  </g>
  <rect x="80" y="286" width="920" height="1348" rx="42" fill="url(#gloss)" pointer-events="none"/>

  <!-- Top banner -->
  <rect x="126" y="336" width="828" height="118" rx="20" fill="#c79a18"/>
  <circle cx="190" cy="395" r="44" fill="#fffcf3"/>
  <g transform="translate(150,355) scale(0.4)"><path d="M100 38 A62 62 0 1 1 38 100 A44 44 0 1 1 100 144 A26 26 0 1 1 126 100" fill="none" stroke="#c79a18" stroke-width="12" stroke-linecap="round"/>
        <circle cx="100" cy="100" r="8" fill="#c79a18"/></g>
  <text x="256" y="382" font-family="'Segoe UI', 'Noto Sans', Arial, sans-serif" font-size="26" fill="#1a0f06" letter-spacing="3" font-weight="800">ÌZÙ 7 — INTEGRATION</text>
  <text x="256" y="420" font-family="'Georgia', 'Noto Serif', serif" font-size="25" fill="#1a0f06" font-style="italic" opacity="0.92">13-Ọ́nwá Life Process</text>
  <path d="M904 369 L930 395 L904 421 L878 395 Z" fill="#fffcf3" stroke="#fffcf3" stroke-width="3"/>
    <path d="M878 395 L930 395 M904 369 L904 421" stroke="#fffcf3" stroke-width="2" opacity="0.7"/>

  <!-- Jersey day number -->
  <circle cx="930" cy="356" r="62" fill="#1a0f06"/>
  <circle cx="930" cy="356" r="62" fill="none" stroke="#D9A441" stroke-width="5"/>
  <text x="930" y="378" text-anchor="middle" font-family="'Segoe UI', 'Noto Sans', Arial, sans-serif" font-size="64" font-weight="900" fill="#fffcf3">25</text>

  <!-- Hero art window -->
  <rect x="126" y="482" width="828" height="426" rx="24" fill="url(#art)" stroke="#c79a18" stroke-width="3"/>
  <g transform="translate(390,545) scale(1.5)"><path d="M100 38 A62 62 0 1 1 38 100 A44 44 0 1 1 100 144 A26 26 0 1 1 126 100" fill="none" stroke="#c79a18" stroke-width="12" stroke-linecap="round"/>
        <circle cx="100" cy="100" r="8" fill="#c79a18"/></g>
  <!-- Ìzù mark, top-left of art (replaces the moon) -->
  <g transform="translate(198,554)"><path d="M 0 0 L 15.9 15.9 L 19.1 12.9 L 22.5 10.2 L 25.9 7.7 L 29.2 5.6 L 32.5 3.9 L 35.5 2.5 L 38.2 1.5 L 40.6 0.8 L 42.5 0.3 L 43.9 0.1 L 44.7 0.0 L 45.0 0.0 L 44.7 -0.0 L 43.9 -0.1 L 42.5 -0.3 L 40.6 -0.8 L 38.2 -1.5 L 35.5 -2.5 L 32.5 -3.9 L 29.2 -5.6 L 25.9 -7.7 L 22.5 -10.2 L 19.1 -12.9 L 15.9 -15.9 L 0 0 Z" fill="#ff4e32" stroke="#2A2A2A" stroke-width="1.1" stroke-linejoin="round"/>
       <path d="M 0 0 L 15.9 -15.9 L 12.9 -19.1 L 10.2 -22.5 L 7.7 -25.9 L 5.6 -29.2 L 3.9 -32.5 L 2.5 -35.5 L 1.5 -38.2 L 0.8 -40.6 L 0.3 -42.5 L 0.1 -43.9 L 0.0 -44.7 L 0.0 -45.0 L -0.0 -44.7 L -0.1 -43.9 L -0.3 -42.5 L -0.8 -40.6 L -1.5 -38.2 L -2.5 -35.5 L -3.9 -32.5 L -5.6 -29.2 L -7.7 -25.9 L -10.2 -22.5 L -12.9 -19.1 L -15.9 -15.9 L 0 0 Z" fill="#66daff" stroke="#2A2A2A" stroke-width="1.1" stroke-linejoin="round"/>
       <path d="M 0 0 L -15.9 15.9 L -12.9 19.1 L -10.2 22.5 L -7.7 25.9 L -5.6 29.2 L -3.9 32.5 L -2.5 35.5 L -1.5 38.2 L -0.8 40.6 L -0.3 42.5 L -0.1 43.9 L -0.0 44.7 L -0.0 45.0 L 0.0 44.7 L 0.1 43.9 L 0.3 42.5 L 0.8 40.6 L 1.5 38.2 L 2.5 35.5 L 3.9 32.5 L 5.6 29.2 L 7.7 25.9 L 10.2 22.5 L 12.9 19.1 L 15.9 15.9 L 0 0 Z" fill="#77e743" stroke="#2A2A2A" stroke-width="1.1" stroke-linejoin="round"/>
       <path d="M 0 0 L -15.9 -15.9 L -19.1 -12.9 L -22.5 -10.2 L -25.9 -7.7 L -29.2 -5.6 L -32.5 -3.9 L -35.5 -2.5 L -38.2 -1.5 L -40.6 -0.8 L -42.5 -0.3 L -43.9 -0.1 L -44.7 -0.0 L -45.0 -0.0 L -44.7 0.0 L -43.9 0.1 L -42.5 0.3 L -40.6 0.8 L -38.2 1.5 L -35.5 2.5 L -32.5 3.9 L -29.2 5.6 L -25.9 7.7 L -22.5 10.2 L -19.1 12.9 L -15.9 15.9 L 0 0 Z" fill="#fff800" stroke="#2A2A2A" stroke-width="1.1" stroke-linejoin="round"/>
       <circle cx="0" cy="0" r="4.5" fill="#fffcf3" stroke="#2A2A2A" stroke-width="1.6"/></g>
  <!-- market chip, bottom-right of art -->
  <rect x="728" y="834" width="206" height="56" rx="28" fill="#ff4e32"/>
  <text x="831" y="872" text-anchor="middle" font-family="'Segoe UI', 'Noto Sans', Arial, sans-serif" font-size="30" font-weight="800" fill="#ffffff">Eké</text>

  <!-- Name plate (centered) -->
  <text x="540" y="982" text-anchor="middle" font-family="'Segoe UI', 'Noto Sans', Arial, sans-serif" font-size="58" font-weight="900" fill="#2A2A2A">Source &amp; Division</text>
  <text x="540" y="1026" text-anchor="middle" font-family="'Georgia', 'Noto Serif', serif" font-size="27" font-style="italic" fill="#c79a18">Ìzù 7 · Ụbọchi 1 · Integration</text>
  <line x1="126" y1="1048" x2="954" y2="1048" stroke="#e0d6bf" stroke-width="2"/>

  <!-- Stats -->
  <text x="229.5" y="1110" text-anchor="middle" font-family="'Segoe UI', 'Noto Sans', Arial, sans-serif" font-size="24" letter-spacing="2" fill="#5b4a36" font-weight="800">MARKET</text>
      <text x="229.5" y="1150" text-anchor="middle" font-family="'Segoe UI', 'Noto Sans', Arial, sans-serif" font-size="31" fill="#2A2A2A" font-weight="800">Eké</text><line x1="333" y1="1084" x2="333" y2="1162" stroke="#e0d6bf" stroke-width="2"/><text x="436.5" y="1110" text-anchor="middle" font-family="'Segoe UI', 'Noto Sans', Arial, sans-serif" font-size="24" letter-spacing="2" fill="#5b4a36" font-weight="800">ÌZÙ</text>
      <text x="436.5" y="1150" text-anchor="middle" font-family="'Segoe UI', 'Noto Sans', Arial, sans-serif" font-size="31" fill="#2A2A2A" font-weight="800">7 of 7</text><line x1="540" y1="1084" x2="540" y2="1162" stroke="#e0d6bf" stroke-width="2"/><text x="643.5" y="1110" text-anchor="middle" font-family="'Segoe UI', 'Noto Sans', Arial, sans-serif" font-size="24" letter-spacing="2" fill="#5b4a36" font-weight="800">ỤBỌCHI</text>
      <text x="643.5" y="1150" text-anchor="middle" font-family="'Segoe UI', 'Noto Sans', Arial, sans-serif" font-size="31" fill="#2A2A2A" font-weight="800">1 of 4</text><line x1="747" y1="1084" x2="747" y2="1162" stroke="#e0d6bf" stroke-width="2"/><text x="850.5" y="1110" text-anchor="middle" font-family="'Segoe UI', 'Noto Sans', Arial, sans-serif" font-size="24" letter-spacing="2" fill="#5b4a36" font-weight="800">CARD</text>
      <text x="850.5" y="1150" text-anchor="middle" font-family="'Segoe UI', 'Noto Sans', Arial, sans-serif" font-size="31" fill="#2A2A2A" font-weight="800">25/28</text>
  <line x1="126" y1="1176" x2="954" y2="1176" stroke="#e0d6bf" stroke-width="2"/>

  <!-- Flavor / prompt (centered) -->
  <text x="540" y="1228" text-anchor="middle" font-family="'Georgia', 'Noto Serif', serif" font-size="44" font-style="italic" fill="#241a10" font-weight="600"><tspan x="540" dy="0">“Which intention has now taken</tspan><tspan x="540" dy="56">form in four ways?”</tspan></text>

  <!-- Echo (centered) -->
  <text x="540" y="1380" text-anchor="middle" font-family="'Georgia', 'Noto Serif', serif" font-size="27" fill="#c79a18"><tspan x="540" dy="0">Ọ́nwá Mbụ + Abụọ: notice where one became</tspan><tspan x="540" dy="36">two this year</tspan></text>

  <!-- Footer inside card -->
  <line x1="126" y1="1518" x2="954" y2="1518" stroke="#e0d6bf" stroke-width="2"/>
  <g transform="translate(540,1556)"><path d="M 0 0 L 8.1 8.1 L 9.8 6.6 L 11.5 5.2 L 13.2 3.9 L 14.9 2.9 L 16.6 2.0 L 18.1 1.3 L 19.5 0.8 L 20.7 0.4 L 21.7 0.2 L 22.4 0.1 L 22.9 0.0 L 23.0 0.0 L 22.9 -0.0 L 22.4 -0.1 L 21.7 -0.2 L 20.7 -0.4 L 19.5 -0.8 L 18.1 -1.3 L 16.6 -2.0 L 14.9 -2.9 L 13.2 -3.9 L 11.5 -5.2 L 9.8 -6.6 L 8.1 -8.1 L 0 0 Z" fill="#ff4e32" stroke="#2A2A2A" stroke-width="1.1" stroke-linejoin="round"/>
       <path d="M 0 0 L 8.1 -8.1 L 6.6 -9.8 L 5.2 -11.5 L 3.9 -13.2 L 2.9 -14.9 L 2.0 -16.6 L 1.3 -18.1 L 0.8 -19.5 L 0.4 -20.7 L 0.2 -21.7 L 0.1 -22.4 L 0.0 -22.9 L 0.0 -23.0 L -0.0 -22.9 L -0.1 -22.4 L -0.2 -21.7 L -0.4 -20.7 L -0.8 -19.5 L -1.3 -18.1 L -2.0 -16.6 L -2.9 -14.9 L -3.9 -13.2 L -5.2 -11.5 L -6.6 -9.8 L -8.1 -8.1 L 0 0 Z" fill="#66daff" stroke="#2A2A2A" stroke-width="1.1" stroke-linejoin="round"/>
       <path d="M 0 0 L -8.1 8.1 L -6.6 9.8 L -5.2 11.5 L -3.9 13.2 L -2.9 14.9 L -2.0 16.6 L -1.3 18.1 L -0.8 19.5 L -0.4 20.7 L -0.2 21.7 L -0.1 22.4 L -0.0 22.9 L -0.0 23.0 L 0.0 22.9 L 0.1 22.4 L 0.2 21.7 L 0.4 20.7 L 0.8 19.5 L 1.3 18.1 L 2.0 16.6 L 2.9 14.9 L 3.9 13.2 L 5.2 11.5 L 6.6 9.8 L 8.1 8.1 L 0 0 Z" fill="#77e743" stroke="#2A2A2A" stroke-width="1.1" stroke-linejoin="round"/>
       <path d="M 0 0 L -8.1 -8.1 L -9.8 -6.6 L -11.5 -5.2 L -13.2 -3.9 L -14.9 -2.9 L -16.6 -2.0 L -18.1 -1.3 L -19.5 -0.8 L -20.7 -0.4 L -21.7 -0.2 L -22.4 -0.1 L -22.9 -0.0 L -23.0 -0.0 L -22.9 0.0 L -22.4 0.1 L -21.7 0.2 L -20.7 0.4 L -19.5 0.8 L -18.1 1.3 L -16.6 2.0 L -14.9 2.9 L -13.2 3.9 L -11.5 5.2 L -9.8 6.6 L -8.1 8.1 L 0 0 Z" fill="#fff800" stroke="#2A2A2A" stroke-width="1.1" stroke-linejoin="round"/>
       <circle cx="0" cy="0" r="2.3" fill="#fffcf3" stroke="#2A2A2A" stroke-width="1.6"/></g>
  <text x="126" y="1568" font-family="'Segoe UI', 'Noto Sans', Arial, sans-serif" font-size="34" font-weight="900" letter-spacing="4" fill="#2F3A56">IGBOKAL</text>
  <text x="954" y="1568" text-anchor="end" font-family="'Segoe UI', 'Noto Sans', Arial, sans-serif" font-size="34" font-weight="900" fill="#c79a18">25 / 28</text>

  <!-- Bottom caption (bottom safe zone, on sage) -->
  <text x="540" y="1824" text-anchor="middle" font-family="'Segoe UI', 'Noto Sans', Arial, sans-serif" font-size="26" fill="#2A2A2A" opacity="0.8" letter-spacing="2">Fire · East  ·  Day 25 of 28</text>
  <text x="540" y="1864" text-anchor="middle" font-family="'Segoe UI', 'Noto Sans', Arial, sans-serif" font-size="24" fill="#9c5a33" opacity="0.95" letter-spacing="3">IgboKal 5004 · 28-Day Reflection · igbokal.com</text>
</svg>